<svg width="39" height="36" viewBox="0 0 39 36" fill="none" xmlns="http://www.w3.org/2000/svg">
<path d="M17.5099 0.98468C8.11265 0.98468 0.50293 8.60468 0.50293 18.0047C0.50293 27.4047 8.11265 35.0347 17.5099 35.0347C26.9072 35.0347 34.517 27.4147 34.517 18.0047C34.517 8.59468 26.8973 0.98468 17.5099 0.98468Z" fill="#C1272D"/>
<path d="M23.6917 16.7947H22.8229V13.6447C22.8229 10.7047 20.4361 8.3147 17.5001 8.3147C14.564 8.3147 12.1773 10.7047 12.1773 13.6447V16.7947H11.3084C10.869 16.7947 10.5095 17.1547 10.5095 17.5947V24.9047C10.5095 25.3447 10.869 25.7047 11.3084 25.7047H23.6917C24.1311 25.7047 24.4906 25.3447 24.4906 24.9047V17.5947C24.4906 17.1547 24.1311 16.7947 23.6917 16.7947ZM14.0048 13.6447C14.0048 11.7147 15.5727 10.1447 17.5001 10.1447C19.4275 10.1447 20.9954 11.7147 20.9954 13.6447V16.7947H14.0048V13.6447Z" fill="white"/>
<path d="M33.2386 0.364685C30.2426 0.364685 27.8059 2.79469 27.8059 5.80469C27.8059 8.81469 30.2326 11.2447 33.2386 11.2447C36.2445 11.2447 38.6712 8.81469 38.6712 5.80469C38.6712 2.79469 36.2445 0.364685 33.2386 0.364685ZM33.7279 8.78469C33.5681 8.92469 33.3584 8.99469 33.0888 8.99469C32.8191 8.99469 32.5894 8.92469 32.4297 8.78469C32.2699 8.64469 32.19 8.44469 32.19 8.18469C32.19 7.92469 32.2699 7.72468 32.4197 7.58468C32.5695 7.44468 32.7892 7.37469 33.0888 7.37469C33.3884 7.37469 33.5881 7.44468 33.7379 7.58468C33.8877 7.72468 33.9676 7.92469 33.9676 8.18469C33.9676 8.44469 33.8877 8.64469 33.7279 8.78469ZM35.106 5.03469C34.9463 5.28469 34.6866 5.52469 34.3371 5.74469C34.0375 5.93469 33.8577 6.07469 33.7778 6.16469C33.7079 6.25469 33.668 6.35468 33.668 6.48468V6.70469H32.3697V6.33468C32.3697 6.05468 32.4297 5.82469 32.5395 5.63469C32.6494 5.44469 32.8491 5.25469 33.1387 5.07469C33.3684 4.93469 33.5282 4.80469 33.628 4.68469C33.7279 4.56469 33.7778 4.43469 33.7778 4.28469C33.7778 4.16469 33.7279 4.07469 33.6181 4.00469C33.5082 3.93469 33.3684 3.90469 33.1986 3.90469C32.7692 3.90469 32.2699 4.05469 31.7006 4.35469L31.1114 3.20468C31.8105 2.80468 32.5495 2.60469 33.3185 2.60469C33.9476 2.60469 34.4469 2.74469 34.8064 3.02469C35.166 3.30469 35.3457 3.68469 35.3457 4.15469C35.3457 4.49469 35.2658 4.79468 35.106 5.04468V5.03469Z" fill="#ED1C24"/>
</svg>
