<svg width="39" height="35" viewBox="0 0 39 35" fill="none" xmlns="http://www.w3.org/2000/svg">
<path d="M17.1188 0.950012C7.72153 0.950012 0.111816 8.57001 0.111816 17.97C0.111816 27.37 7.72153 35 17.1188 35C26.5161 35 34.1259 27.38 34.1259 17.97C34.1259 8.56001 26.5061 0.950012 17.1188 0.950012Z" fill="#C1272D"/>
<path d="M23.3006 16.76H22.4318V13.61C22.4318 10.67 20.045 8.28003 17.109 8.28003C14.1729 8.28003 11.7862 10.67 11.7862 13.61V16.76H10.9173C10.4779 16.76 10.1184 17.12 10.1184 17.56V24.87C10.1184 25.31 10.4779 25.67 10.9173 25.67H23.3006C23.74 25.67 24.0995 25.31 24.0995 24.87V17.56C24.0995 17.12 23.74 16.76 23.3006 16.76ZM13.6137 13.61C13.6137 11.68 15.1816 10.11 17.109 10.11C19.0364 10.11 20.6042 11.68 20.6042 13.61V16.76H13.6137V13.61Z" fill="white"/>
<path d="M32.8475 0.330017C29.8515 0.330017 27.4148 2.76002 27.4148 5.77002C27.4148 8.78002 29.8415 11.21 32.8475 11.21C35.8534 11.21 38.2801 8.78002 38.2801 5.77002C38.2801 2.76002 35.8534 0.330017 32.8475 0.330017ZM33.3368 8.75002C33.177 8.89002 32.9673 8.96002 32.6977 8.96002C32.428 8.96002 32.1983 8.89002 32.0385 8.75002C31.8788 8.61002 31.7989 8.41002 31.7989 8.15002C31.7989 7.89002 31.8788 7.69002 32.0286 7.55002C32.1784 7.41002 32.3981 7.34002 32.6977 7.34002C32.9973 7.34002 33.197 7.41002 33.3468 7.55002C33.4966 7.69002 33.5765 7.89002 33.5765 8.15002C33.5765 8.41002 33.4966 8.61002 33.3368 8.75002ZM34.7149 5.00002C34.5551 5.25002 34.2955 5.49002 33.946 5.71002C33.6464 5.90002 33.4666 6.04002 33.3867 6.13002C33.3168 6.22002 33.2769 6.32002 33.2769 6.45002V6.67002H31.9786V6.30002C31.9786 6.02002 32.0385 5.79002 32.1484 5.60002C32.2583 5.41002 32.458 5.22002 32.7476 5.04002C32.9773 4.90002 33.1371 4.77002 33.2369 4.65002C33.3368 4.53002 33.3867 4.40002 33.3867 4.25002C33.3867 4.13002 33.3368 4.04002 33.2269 3.97002C33.1171 3.90002 32.9773 3.87002 32.8075 3.87002C32.3781 3.87002 31.8788 4.02002 31.3095 4.32002L30.7203 3.17002C31.4194 2.77002 32.1584 2.57002 32.9273 2.57002C33.5565 2.57002 34.0558 2.71002 34.4153 2.99002C34.7748 3.27002 34.9546 3.65002 34.9546 4.12002C34.9546 4.46002 34.8747 4.76002 34.7149 5.01002V5.00002Z" fill="#ED1C24"/>
</svg>
