<svg width="272" height="227" viewBox="0 0 272 227" fill="none" xmlns="http://www.w3.org/2000/svg">
<path d="M85.8478 93.8093C102.715 93.6993 119.582 93.5892 136.439 93.4792C136.439 93.4792 136.39 93.8193 136.39 93.8093C136.4 138.039 136.419 182.269 136.429 226.499C131.346 227.429 127.322 225.479 123.817 222.029C101.527 200.029 79.2068 178.059 56.9569 156.029C49.6867 148.829 49.9364 137.739 57.3264 131.039C57.6959 130.779 58.0654 130.529 58.4249 130.269C64.5966 125.249 71.9566 127.159 78.9072 126.949C85.8378 126.739 85.8478 126.899 85.8478 120.169C85.8478 111.379 85.8478 102.589 85.8478 93.7993V93.8093Z" fill="#8CC63F"/>
<path d="M136.43 226.499C136.42 182.269 136.4 138.039 136.39 93.8093C153.257 93.8093 170.124 93.8093 186.991 93.8093C186.991 103.299 187.231 112.799 186.871 122.279C186.722 126.359 188.11 127.189 191.875 126.989C196.738 126.729 201.711 126.599 206.515 127.279C214.614 128.419 220.156 139.649 220.486 141.459C220.816 143.269 220.486 145.619 220.486 145.619C220.486 145.619 217.85 153.189 214.774 156.209C192.734 177.819 170.793 199.529 148.823 221.209C145.397 224.599 141.692 227.339 136.43 226.509V226.499Z" fill="#39B54A"/>
<path d="M85.8478 100.809C69.7196 100.759 53.5913 100.709 37.4631 100.639C28.3055 100.599 22.1938 96.5593 19.5973 87.7593C14.7738 71.4793 10.3897 55.0593 5.86584 38.6993C4.37786 33.2993 2.92981 27.8893 1.6016 22.4593C-1.3544 10.3893 6.07556 0.909298 18.6386 0.889298C54.7598 0.829298 90.871 0.869288 126.992 0.879288C130.148 0.879288 133.294 0.979292 136.449 1.03929C136.449 34.1893 136.439 67.3293 136.429 100.479C119.562 100.589 102.695 100.699 85.8378 100.809H85.8478Z" fill="#D9E021"/>
<path d="M135.99 99.7609C136.27 66.496 136.15 34.2211 136.43 0.956269C175.729 1.21725 215.438 0.448122 254.738 0.769328C268.663 0.879742 273.923 14.7016 270.939 23.9062C268.633 31.0129 267.625 38.6917 265.319 45.5876C262.694 53.4471 260.657 61.4973 258.042 69.3568C256.055 75.3191 254.488 81.4321 252.981 87.545C251.174 94.9026 242.56 101.256 235.442 100.945C219.151 100.243 202.821 100.594 186.51 100.514C169.65 100.373 152.79 100.233 135.93 100.102L135.99 99.7709V99.7609Z" fill="#FCEE21"/>
</svg>
