<svg width="20" height="20" viewBox="0 0 20 20" fill="none" xmlns="http://www.w3.org/2000/svg">
<path d="M14.59 3.74292C13.98 3.74292 13.48 4.24292 13.48 4.85292C13.48 5.46292 13.98 5.96292 14.59 5.96292C15.2 5.96292 15.7 5.46292 15.7 4.85292C15.7 4.24292 15.2 3.74292 14.59 3.74292Z" fill="#B3B3B3"/>
<path d="M9.65991 5.16296C7.08991 5.16296 5 7.25296 5 9.82296C5 12.393 7.08991 14.483 9.65991 14.483C12.2299 14.483 14.3199 12.393 14.3199 9.82296C14.3199 7.25296 12.2299 5.16296 9.65991 5.16296ZM9.65991 12.803C8.00991 12.803 6.67993 11.463 6.67993 9.82296C6.67993 8.18296 8.01991 6.84296 9.65991 6.84296C11.2999 6.84296 12.6399 8.18296 12.6399 9.82296C12.6399 11.463 11.2999 12.803 9.65991 12.803Z" fill="#B3B3B3"/>
<path d="M13.36 19.2729H5.80994C2.67994 19.2729 0.130005 16.7229 0.130005 13.5929V6.04292C0.130005 2.91292 2.67994 0.362915 5.80994 0.362915H13.36C16.49 0.362915 19.0399 2.91292 19.0399 6.04292V13.5929C19.0399 16.7229 16.49 19.2729 13.36 19.2729ZM5.80994 2.14291C3.65994 2.14291 1.90991 3.89292 1.90991 6.04292V13.5929C1.90991 15.7429 3.65994 17.4929 5.80994 17.4929H13.36C15.51 17.4929 17.2599 15.7429 17.2599 13.5929V6.04292C17.2599 3.89292 15.51 2.14291 13.36 2.14291H5.80994Z" fill="#B3B3B3"/>
</svg>
