<svg width="19" height="20" viewBox="0 0 19 20" fill="none" xmlns="http://www.w3.org/2000/svg">
<path d="M0.039917 19.2729L1.40002 14.2129C0.630024 12.8229 0.22998 11.2729 0.22998 9.70292C0.22998 4.55292 4.41995 0.362915 9.56995 0.362915C14.7199 0.362915 18.9099 4.55292 18.9099 9.70292C18.9099 14.8529 14.7199 19.0429 9.56995 19.0429C8.01995 19.0429 6.5 18.6529 5.13 17.9129L0.039917 19.2729ZM5.38 16.0129L5.69995 16.2029C6.87995 16.9029 8.20995 17.2729 9.56995 17.2729C13.7499 17.2729 17.15 13.8729 17.15 9.69291C17.15 5.51291 13.7499 2.11292 9.56995 2.11292C5.38995 2.11292 1.98999 5.51291 1.98999 9.69291C1.98999 11.0729 2.36998 12.4329 3.09998 13.6229L3.29993 13.9429L2.53992 16.7629L5.38 16.0029V16.0129Z" fill="#B3B3B3"/>
<path fill-rule="evenodd" clip-rule="evenodd" d="M13.0399 11.0029C12.6599 10.7729 12.16 10.5129 11.7 10.7029C11.35 10.8429 11.1299 11.3929 10.9099 11.6629C10.7899 11.8029 10.66 11.8229 10.48 11.7529C9.17998 11.2329 8.17996 10.3629 7.45996 9.16289C7.33996 8.97289 7.36001 8.83288 7.51001 8.65288C7.73001 8.39288 7.99994 8.10289 8.05994 7.76289C8.11994 7.42289 7.95994 7.01289 7.80994 6.70289C7.62994 6.31289 7.42003 5.75289 7.03003 5.53289C6.67003 5.33289 6.19 5.44289 5.87 5.70289C5.31 6.15289 5.04993 6.86289 5.04993 7.57289C5.04993 7.77289 5.08 7.97289 5.12 8.16289C5.23 8.62289 5.44994 9.06289 5.68994 9.47289C5.86994 9.78289 6.07003 10.0829 6.28003 10.3729C6.98003 11.3229 7.84998 12.1429 8.84998 12.7629C9.34998 13.0729 9.88995 13.3429 10.45 13.5229C11.08 13.7329 11.6399 13.9429 12.3199 13.8129C13.0299 13.6829 13.73 13.2429 14.01 12.5529C14.09 12.3529 14.14 12.1229 14.09 11.9129C13.99 11.4729 13.3899 11.2029 13.0399 10.9929V11.0029Z" fill="#B3B3B3"/>
</svg>
