<svg width="59" height="39" viewBox="0 0 59 39" fill="none" xmlns="http://www.w3.org/2000/svg">
<path d="M12.1899 26.0531C11.9748 26.4188 11.6584 26.9231 11.2662 27.541C10.8739 28.1588 10.431 28.8397 9.93757 29.571C9.44409 30.3023 8.91265 31.0462 8.3559 31.8154C7.79916 32.5845 7.22975 33.278 6.6477 33.8958C6.06564 34.5136 5.5089 35.0432 4.96481 35.4467C4.43336 35.8628 3.92722 36.0771 3.4717 36.1024C2.94026 36.1402 2.51005 36.0771 2.15575 35.9006C1.80146 35.7241 1.52309 35.4971 1.29533 35.2071C1.08022 34.9171 0.915733 34.5893 0.814506 34.2236C0.713279 33.858 0.662674 33.4797 0.637367 33.1141C0.61206 32.6349 0.713279 31.891 0.915733 30.8949C1.13084 29.8988 1.42187 28.7514 1.81412 27.4527C2.20638 26.154 2.67456 24.7418 3.21865 23.2414C3.75009 21.7283 4.33213 20.2278 4.92684 18.7148C5.5342 17.2017 6.15422 15.7517 6.79954 14.3521C7.44486 12.9526 8.07752 11.7169 8.69753 10.6451C9.31755 9.57339 9.8996 8.70338 10.4564 8.03512C11.0131 7.36685 11.5066 7.02641 11.9241 7.00119C12.367 6.97597 12.734 7.08945 13.025 7.32902C13.316 7.56859 13.4805 7.8712 13.5058 8.24947C13.5058 8.40077 13.3793 8.81686 13.1389 9.49774C12.8984 10.1786 12.5948 10.9856 12.2152 11.9438C11.8482 12.8895 11.4307 13.9108 10.9625 15.0078C10.4943 16.1048 10.0641 17.1513 9.64654 18.16C9.22898 19.1687 8.84937 20.0639 8.50773 20.8457C8.16609 21.6274 7.93833 22.1822 7.8371 22.4848C7.38158 23.6701 6.95137 24.8427 6.57177 26.0279C6.19217 27.2131 5.81258 28.3858 5.43298 29.571C5.3191 29.8106 5.29379 30.0249 5.33175 30.1888L5.39501 30.5797C7.30567 28.0453 9.07713 25.4605 10.7221 22.8127C12.367 20.1648 13.9234 17.4665 15.3912 14.7178C15.4544 14.6043 15.5177 14.4908 15.5936 14.3774C15.6569 14.2639 15.7328 14.1378 15.8214 14.0369C15.9732 13.7973 16.1757 13.6082 16.4161 13.4569C16.6565 13.3182 16.9349 13.23 17.2385 13.2173C17.6814 13.1795 18.0737 13.2804 18.4406 13.5326C18.8076 13.7847 19.01 14.1126 19.048 14.5287C19.048 14.7052 18.9847 15.033 18.8708 15.5248C18.7443 16.0165 18.6051 16.5461 18.428 17.1261C18.2508 17.7061 18.0737 18.2609 17.8965 18.7778C17.7194 19.3074 17.6055 19.6983 17.5296 19.9631C17.0234 21.9931 16.6059 24.0862 16.2642 26.2297C15.9226 28.3732 15.8214 30.4788 15.9479 32.5593L16.0112 33.7697C16.2895 33.5932 16.6312 33.1645 17.0108 32.4962C17.3904 31.8154 17.8206 30.9832 18.2761 29.9745C18.7316 28.9658 19.2251 27.8436 19.7186 26.5953C20.2247 25.347 20.7309 24.0735 21.237 22.7622C21.7431 21.4509 22.224 20.1522 22.6795 18.8661C23.135 17.58 23.5652 16.3822 23.9448 15.2978C24.3244 14.2008 24.6534 13.2552 24.9318 12.4608C25.2102 11.6665 25.4126 11.0865 25.5391 10.7334C25.7163 10.2543 25.944 9.586 26.2098 8.71599C26.4881 7.85859 26.7792 6.96336 27.0828 6.05553C27.3865 5.14769 27.7028 4.29029 28.0192 3.48333C28.3355 2.67636 28.6265 2.08375 28.8923 1.71809C29.0694 1.50374 29.2592 1.32722 29.487 1.18852C29.7021 1.06243 29.9678 0.986781 30.2715 0.961563C30.7143 0.923736 31.1066 1.02461 31.4735 1.27678C31.8405 1.52896 32.043 1.85679 32.0809 2.24766C32.0809 2.37375 32.0429 2.60071 31.9797 2.91593C31.9164 3.23115 31.8405 3.57159 31.7519 3.93725C31.6634 4.3029 31.5748 4.64334 31.4735 4.98378C31.3723 5.32422 31.3091 5.56379 31.2585 5.71509C30.9548 6.91293 30.5372 8.35033 30.0058 10.0147C29.4743 11.6791 28.8796 13.4443 28.209 15.3104C27.5384 17.1765 26.8171 19.0931 26.0579 21.06C25.2861 23.027 24.5016 24.9183 23.6917 26.7214C22.8819 28.5245 22.0721 30.2014 21.2623 31.7397C20.4525 33.278 19.6806 34.5515 18.9594 35.5602C18.7822 35.7997 18.5798 36.0519 18.352 36.2915C18.1243 36.5437 17.8712 36.7832 17.6181 36.9976C17.3524 37.2119 17.0614 37.4011 16.7451 37.5398C16.4287 37.6785 16.0871 37.7667 15.7454 37.7919C14.9736 37.8298 14.3536 37.6533 13.8854 37.2372C13.4172 36.8211 13.0503 36.3167 12.7846 35.7115C12.5188 35.1063 12.329 34.4758 12.2278 33.7949C12.1139 33.1141 12.0507 32.5341 12.0254 32.0549C11.9621 31.0336 11.9748 30.0249 12.0633 29.0414C12.1519 28.0579 12.2531 27.0618 12.3543 26.0531H12.1519H12.1899Z" fill="#F2F2F2"/>
<path d="M29.0694 23.6322C29.3098 23.0648 29.6009 22.5983 29.9425 22.2453C30.2842 21.8796 30.6764 21.7031 31.1066 21.7031C31.6127 21.7031 32.0303 21.867 32.3593 22.2074C32.6883 22.5479 32.8528 22.964 32.8528 23.4683C32.8528 23.5818 32.7895 23.8718 32.6756 24.3383C32.5618 24.8049 32.4099 25.3849 32.2328 26.0657C32.0556 26.7466 31.8658 27.4653 31.6381 28.2345C31.4229 29.0036 31.2078 29.7223 31.018 30.4032C30.8282 31.084 30.6511 31.6641 30.4866 32.1558C30.3348 32.6476 30.2335 32.9502 30.1956 33.0636C29.9552 33.5932 29.525 33.8454 28.9176 33.8454C28.4368 33.8454 28.0951 33.7193 27.918 33.4671C27.7282 33.2149 27.6143 32.9123 27.5763 32.5719C27.4878 31.9415 27.4751 31.2227 27.5257 30.4284C27.5763 29.634 27.6902 28.8271 27.842 28.0075C27.9939 27.1879 28.1837 26.4062 28.3988 25.6496C28.6139 24.8931 28.8417 24.2375 29.0947 23.6701L29.0694 23.6322ZM35.2569 15.1717C35.2569 15.4113 35.181 15.7013 35.0418 16.0291C34.9026 16.3569 34.7128 16.6722 34.4851 16.9748C34.2573 17.2774 34.0169 17.5422 33.7512 17.7565C33.4854 17.9709 33.2324 18.0843 32.9667 18.0843C32.663 18.0843 32.3466 17.9709 32.043 17.7439C31.7266 17.517 31.5748 17.2396 31.5748 16.9117C31.5748 16.5839 31.6127 16.2182 31.676 15.8148C31.7393 15.4113 31.8405 15.033 31.9923 14.6674C32.1315 14.3017 32.334 14.0117 32.5997 13.7721C32.8654 13.5326 33.1818 13.4065 33.574 13.4065C34.0675 13.4065 34.4851 13.5704 34.8014 13.9108C35.1177 14.2513 35.2696 14.6674 35.2696 15.1717H35.2569Z" fill="#F2F2F2"/>
<path d="M39.2933 22.9135C39.7362 22.7622 40.2676 22.4722 40.9003 22.0561C41.533 21.64 42.1909 21.2113 42.8615 20.7826C43.5322 20.3413 44.1775 19.9505 44.8228 19.5974C45.4555 19.2444 45.9996 19.0678 46.4298 19.0678C46.8853 19.03 47.2902 19.0931 47.6445 19.2822C47.9988 19.4713 48.1886 19.7992 48.2392 20.2783C48.2392 20.6692 48.0494 20.997 47.6825 21.2618C46.6322 22.0057 45.5061 22.7118 44.304 23.3801C43.1146 24.0483 41.9505 24.6914 40.837 25.3344C41.1027 25.3975 41.4697 25.4605 41.9505 25.4983C42.4313 25.5362 42.9628 25.5992 43.5448 25.6623C44.1269 25.7253 44.7216 25.801 45.3163 25.8892C45.9237 25.9775 46.4678 26.1036 46.9739 26.2549C47.48 26.4062 47.8976 26.5953 48.2392 26.8097C48.5809 27.024 48.758 27.2888 48.7833 27.5914C48.8086 27.9445 48.6821 28.2092 48.4164 28.411C48.1507 28.6127 47.8217 28.7136 47.4294 28.7388C46.9739 28.764 46.4804 28.7262 45.9869 28.6253C45.4808 28.5245 44.9746 28.4614 44.4685 28.4488C44.3167 28.4488 44.0383 28.4488 43.6334 28.411C43.2285 28.3858 42.773 28.3605 42.2542 28.3353C41.7354 28.2975 41.1913 28.2723 40.6219 28.2345C40.0525 28.1966 39.5211 28.1714 39.0402 28.1336C38.5594 28.0958 38.1545 28.0832 37.8255 28.0705C37.4965 28.0579 37.3194 28.0579 37.2941 28.0579L37.1928 28.121C37.0157 28.5623 36.8006 29.1297 36.5475 29.8358C36.2945 30.5419 36.054 31.2858 35.8263 32.0423C35.5985 32.8115 35.4087 33.5428 35.2442 34.2615C35.0924 34.9676 35.0291 35.535 35.0418 35.9511C35.0671 36.3671 35.181 36.6698 35.3834 36.8715C35.5859 37.0732 35.7124 37.3128 35.763 37.628C35.763 37.9054 35.6365 38.1576 35.3961 38.3846C35.1557 38.6115 34.8773 38.6998 34.5736 38.6746C34.2067 38.6998 33.8777 38.6241 33.5867 38.4476C33.2956 38.2711 33.0552 38.0441 32.8654 37.7793C32.6756 37.5146 32.5111 37.2119 32.4099 36.9093C32.296 36.6067 32.2328 36.3167 32.2075 36.0519C32.1442 35.1945 32.2074 34.1858 32.4099 33.0006C32.6123 31.8154 32.8781 30.5545 33.2324 29.1927C33.5867 27.831 33.9916 26.444 34.4597 25.0192C34.9279 23.5818 35.4087 22.2074 35.9022 20.8709C36.3957 19.5344 36.8892 18.2861 37.37 17.1387C37.8508 15.9787 38.281 14.9952 38.648 14.1882C38.9264 13.646 39.3186 12.9273 39.7994 12.0447C40.2803 11.1621 40.8497 10.2795 41.495 9.42209C42.1403 8.56469 42.8489 7.80816 43.5955 7.17772C44.3547 6.54728 45.1391 6.20683 45.949 6.1564C46.4298 6.13118 46.8727 6.25727 47.2649 6.53467C47.6572 6.81206 47.8849 7.19032 47.9229 7.66946C47.9482 7.95946 47.8217 8.24946 47.5559 8.55208C46.6828 9.49774 45.8604 10.5569 45.0885 11.7673C44.3167 12.9652 43.5954 14.2134 42.9122 15.4869C42.2289 16.7604 41.5836 18.0465 40.9762 19.32C40.3562 20.5935 39.7868 21.7913 39.23 22.9135H39.2933Z" fill="#F2F2F2"/>
<path d="M51.8328 23.6322C52.0732 23.0648 52.3642 22.5983 52.7059 22.2453C53.0475 21.8796 53.4398 21.7031 53.87 21.7031C54.3761 21.7031 54.7937 21.867 55.1226 22.2074C55.4516 22.5479 55.6161 22.964 55.6161 23.4683C55.6161 23.5818 55.5529 23.8718 55.439 24.3383C55.3125 24.8049 55.1733 25.3849 54.9961 26.0657C54.819 26.7466 54.6292 27.4653 54.4014 28.2345C54.1863 29.0036 53.9712 29.7223 53.7814 30.4032C53.5789 31.084 53.4145 31.6641 53.25 32.1558C53.0981 32.6476 52.9969 32.9502 52.9589 33.0636C52.7185 33.5932 52.2883 33.8454 51.681 33.8454C51.2001 33.8454 50.8585 33.7193 50.6813 33.4671C50.4915 33.2149 50.3776 32.9123 50.3397 32.5719C50.2511 31.9415 50.2385 31.2227 50.2891 30.4284C50.3397 29.634 50.4536 28.8271 50.6054 28.0075C50.7573 27.1879 50.9471 26.4062 51.1622 25.6496C51.3773 24.8931 51.6177 24.2375 51.8581 23.6701L51.8328 23.6322ZM58.0203 15.1717C58.0203 15.4113 57.9444 15.7013 57.8052 16.0291C57.666 16.3569 57.4762 16.6722 57.2484 16.9748C57.0207 17.2774 56.7802 17.5422 56.5145 17.7565C56.2488 17.9709 55.9957 18.0843 55.73 18.0843C55.4263 18.0843 55.11 17.9709 54.8063 17.7439C54.49 17.517 54.3381 17.2396 54.3381 16.9117C54.3381 16.5839 54.3761 16.2182 54.4394 15.8148C54.5026 15.4113 54.6039 15.033 54.7557 14.6674C54.8949 14.3017 55.0973 14.0117 55.3631 13.7721C55.6288 13.5326 55.9451 13.4065 56.3374 13.4065C56.8435 13.4065 57.2484 13.5704 57.5648 13.9108C57.8811 14.2513 58.0329 14.6674 58.0329 15.1717H58.0203Z" fill="#F2F2F2"/>
</svg>
