<svg width="200" height="83" viewBox="0 0 200 83" fill="none" xmlns="http://www.w3.org/2000/svg">
<path d="M41.4498 27.0447C47.5454 13.437 61.3151 4.69272 76.8814 4.69272C92.4477 4.69272 106.307 13.4862 112.377 27.1798H116.894C116.843 27.0325 116.792 26.8974 116.728 26.75C110.273 10.9194 94.6421 0.701294 76.8814 0.701294C59.1207 0.701294 43.5544 10.8825 37.0738 26.6517C37.0225 26.7868 36.9711 26.9096 36.9198 27.0447H41.4498Z" fill="#F2F2F2"/>
<path d="M111.466 57.9568C104.985 70.4961 91.6136 78.528 76.8942 78.528C65.5243 78.528 55.2965 73.7997 48.2256 66.2836C47.0578 67.1187 45.7616 67.7328 44.35 68.0889C52.1909 76.9069 63.8689 82.5195 76.8942 82.5195C93.8336 82.5195 109.195 72.9278 116.035 58.0919C116.06 58.0428 116.073 57.9937 116.099 57.9568H111.466Z" fill="#F2F2F2"/>
<path d="M76.8557 28.9975C84.8506 28.9975 91.3184 34.6346 91.3184 42.3841C91.3184 50.1336 84.8506 55.8813 76.8557 55.8813C68.8608 55.8813 62.4444 50.195 62.4444 42.3841C62.4444 34.5732 68.8608 28.9975 76.8557 28.9975ZM76.8557 51.6197C81.9375 51.6197 86.0697 47.7633 86.0697 42.3841C86.0697 37.0049 81.9375 33.2591 76.8557 33.2591C71.7739 33.2591 67.693 37.0663 67.693 42.3841C67.693 47.7019 71.8252 51.6197 76.8557 51.6197Z" fill="#333333"/>
<path d="M121.193 22.6849H126.288V29.7344H132.692V33.6889H126.288V45.4545C126.288 50.5758 129.997 51.239 131.96 51.239C132.704 51.239 133.179 51.1407 133.179 51.1407V55.5006C133.179 55.5006 132.486 55.5988 131.37 55.5988C127.982 55.5988 121.193 54.5795 121.193 46.0071V22.6726V22.6849Z" fill="#333333"/>
<path d="M117.972 29.7344H112.813V41.7578C112.813 46.83 109.58 51.4477 104.074 51.4477C99.8394 51.4477 99.108 48.6108 99.108 45.0615V29.7466H93.9491V46.1791C93.9491 52.9706 97.029 56.0164 103.06 56.0164C108.206 56.0164 111.594 52.8601 112.813 50.3547V55.4146H117.972V29.7344Z" fill="#333333"/>
<path d="M62.5085 29.6115H56.9391L49.3805 48.8686L41.1033 29.6115H35.4825L46.9807 55.169L45.7616 57.9568C44.7606 60.2411 43.118 61.6535 41.0391 61.6535C38.7677 61.6535 37.1251 59.8727 37.1251 59.8236L35.0077 63.3729C35.0077 63.3729 37.3432 65.9151 41.3214 65.9151C45.0815 65.9151 48.3154 63.8273 49.958 59.8727L62.4957 29.5992L62.5085 29.6115Z" fill="#333333"/>
<path d="M22.6753 28.9975C20.083 28.9975 13.3971 29.6115 13.3971 33.8117V36.3417H18.2223V34.8679C18.2223 33.1977 21.3535 32.8906 22.6239 32.8906C26.8075 32.8906 28.5527 34.5118 28.5527 39.0313V39.2892H27.3849C22.8806 39.2892 11.2155 39.7927 11.2155 48.0581C11.2155 53.1794 15.7199 55.869 20.3269 55.869C26.1915 55.869 28.4629 51.6319 28.8094 50.9073V55.3041H33.6859V39.0313C33.6859 33.345 31.3503 28.9852 22.6624 28.9852M28.6041 43.7473C28.6041 47.5545 25.7937 51.9144 21.4433 51.9144C18.0554 51.9144 16.4128 49.888 16.4128 47.8125C16.4128 43.0964 23.4068 42.8876 27.2823 42.8876H28.6041V43.7473Z" fill="#333333"/>
<path d="M6.45451 51.067C5.7102 51.067 5.29955 50.7108 5.29955 49.9494V19.4672H0.153564V52.0249C0.153564 54.3093 1.15453 55.2672 3.54145 55.2672H8.6361V51.0547H6.46735L6.45451 51.067Z" fill="#333333"/>
<path d="M153.186 50.4284C152.968 50.7845 152.647 51.2758 152.249 51.8776C151.851 52.4794 151.402 53.1425 150.901 53.8549C150.401 54.5672 149.862 55.2918 149.297 56.0409C148.733 56.7901 148.155 57.4656 147.565 58.0674C146.975 58.6691 146.41 59.185 145.858 59.578C145.319 59.9832 144.806 60.192 144.344 60.2166C143.805 60.2534 143.369 60.192 143.009 60.0201C142.65 59.8482 142.368 59.6271 142.137 59.3446C141.918 59.0621 141.752 58.7428 141.649 58.3867C141.546 58.0305 141.495 57.6621 141.469 57.3059C141.444 56.8392 141.546 56.1146 141.752 55.1444C141.97 54.1742 142.265 53.0566 142.663 51.7916C143.061 50.5266 143.535 49.1511 144.087 47.6896C144.626 46.2159 145.217 44.7544 145.82 43.2806C146.436 41.8069 147.064 40.3945 147.719 39.0313C148.373 37.6681 149.015 36.4645 149.644 35.4206C150.273 34.3767 150.863 33.5293 151.428 32.8784C151.992 32.2275 152.493 31.8959 152.916 31.8713C153.365 31.8467 153.738 31.9573 154.033 32.1906C154.328 32.424 154.495 32.7187 154.52 33.0872C154.52 33.2345 154.392 33.6398 154.148 34.303C153.904 34.9662 153.596 35.7522 153.211 36.6856C152.839 37.6067 152.416 38.6015 151.941 39.6699C151.466 40.7384 151.03 41.7578 150.606 42.7403C150.183 43.7228 149.798 44.5948 149.451 45.3562C149.105 46.1176 148.874 46.658 148.771 46.9528C148.309 48.1072 147.873 49.2494 147.488 50.4038C147.103 51.5583 146.718 52.7004 146.333 53.8549C146.217 54.0882 146.192 54.297 146.23 54.4567L146.294 54.8374C148.232 52.3688 150.029 49.8512 151.697 47.2721C153.365 44.693 154.944 42.0648 156.432 39.3875C156.497 39.2769 156.561 39.1664 156.638 39.0559C156.702 38.9453 156.779 38.8225 156.869 38.7243C157.023 38.4909 157.228 38.3067 157.472 38.1593C157.716 38.0242 157.998 37.9383 158.306 37.926C158.755 37.8891 159.153 37.9874 159.525 38.233C159.897 38.4786 160.103 38.798 160.141 39.2032C160.141 39.3752 160.077 39.6945 159.961 40.1735C159.833 40.6524 159.692 41.1683 159.512 41.7332C159.333 42.2981 159.153 42.8385 158.973 43.3421C158.794 43.8579 158.678 44.2386 158.601 44.4965C158.088 46.4738 157.664 48.5125 157.318 50.6003C156.971 52.6881 156.869 54.7391 156.997 56.7655L157.061 57.9445C157.344 57.7726 157.69 57.355 158.075 56.7041C158.46 56.0409 158.896 55.2304 159.358 54.2479C159.82 53.2654 160.321 52.1723 160.821 50.9565C161.335 49.7406 161.848 48.5002 162.361 47.223C162.875 45.9457 163.362 44.6807 163.824 43.428C164.286 42.1753 164.722 41.0086 165.107 39.9524C165.492 38.8839 165.826 37.9628 166.108 37.1891C166.391 36.4154 166.596 35.8504 166.724 35.5066C166.904 35.0399 167.135 34.389 167.405 33.5416C167.687 32.7064 167.982 31.8345 168.29 30.9502C168.598 30.0659 168.919 29.2308 169.24 28.4448C169.56 27.6588 169.856 27.0816 170.125 26.7254C170.305 26.5166 170.497 26.3447 170.728 26.2096C170.946 26.0868 171.216 26.0131 171.524 25.9885C171.973 25.9517 172.371 26.05 172.743 26.2956C173.115 26.5412 173.321 26.8605 173.359 27.2412C173.359 27.3641 173.321 27.5851 173.256 27.8921C173.192 28.1992 173.115 28.5308 173.025 28.8869C172.936 29.2431 172.846 29.5747 172.743 29.9063C172.64 30.2379 172.576 30.4712 172.525 30.6186C172.217 31.7853 171.793 33.1854 171.254 34.8065C170.715 36.4277 170.112 38.1471 169.432 39.9647C168.752 41.7823 168.021 43.6491 167.251 45.565C166.468 47.4809 165.672 49.3231 164.851 51.0793C164.03 52.8355 163.208 54.4689 162.387 55.9673C161.566 57.4656 160.783 58.706 160.051 59.6885C159.872 59.9218 159.666 60.1675 159.435 60.4008C159.204 60.6464 158.948 60.8798 158.691 61.0886C158.422 61.2973 158.126 61.4816 157.806 61.6167C157.485 61.7518 157.138 61.8377 156.792 61.8623C156.009 61.8991 155.38 61.7272 154.905 61.3219C154.431 60.9166 154.058 60.4254 153.789 59.8359C153.519 59.2464 153.327 58.6323 153.224 57.9691C153.109 57.3059 153.045 56.741 153.019 56.2743C152.955 55.2795 152.968 54.297 153.057 53.3391C153.147 52.3811 153.25 51.4109 153.353 50.4284H153.147H153.186Z" fill="#F2F2F2"/>
<path d="M170.305 48.0704C170.549 47.5177 170.844 47.0633 171.19 46.7194C171.537 46.3633 171.935 46.1913 172.371 46.1913C172.884 46.1913 173.308 46.351 173.641 46.6826C173.975 47.0142 174.142 47.4195 174.142 47.9107C174.142 48.0212 174.078 48.3037 173.962 48.7581C173.847 49.2125 173.693 49.7775 173.513 50.4407C173.333 51.1039 173.141 51.8039 172.91 52.553C172.692 53.3022 172.474 54.0022 172.281 54.6654C172.089 55.3286 171.909 55.8936 171.742 56.3725C171.588 56.8515 171.485 57.1463 171.447 57.2568C171.203 57.7726 170.767 58.0182 170.151 58.0182C169.663 58.0182 169.317 57.8954 169.137 57.6498C168.945 57.4042 168.829 57.1094 168.791 56.7778C168.701 56.1638 168.688 55.4637 168.739 54.69C168.791 53.9163 168.906 53.1303 169.06 52.332C169.214 51.5337 169.407 50.7723 169.625 50.0354C169.843 49.2985 170.074 48.6599 170.33 48.1072L170.305 48.0704ZM176.58 39.8296C176.58 40.0629 176.503 40.3454 176.362 40.6647C176.221 40.984 176.028 41.2911 175.797 41.5858C175.566 41.8806 175.322 42.1385 175.053 42.3473C174.783 42.556 174.527 42.6666 174.257 42.6666C173.949 42.6666 173.629 42.5561 173.321 42.335C173 42.1139 172.846 41.8437 172.846 41.5244C172.846 41.2051 172.884 40.8489 172.948 40.4559C173.013 40.0629 173.115 39.6945 173.269 39.3383C173.41 38.9822 173.616 38.6997 173.885 38.4664C174.155 38.233 174.475 38.1102 174.873 38.1102C175.374 38.1102 175.797 38.2699 176.118 38.6015C176.439 38.9331 176.593 39.3383 176.593 39.8296H176.58Z" fill="#F2F2F2"/>
<path d="M180.674 47.3703C181.123 47.223 181.662 46.9405 182.304 46.5352C182.945 46.1299 183.613 45.7124 184.293 45.2948C184.973 44.8649 185.627 44.4842 186.282 44.1403C186.923 43.7965 187.475 43.6245 187.912 43.6245C188.373 43.5877 188.784 43.6491 189.143 43.8333C189.503 44.0175 189.695 44.3368 189.747 44.8035C189.747 45.1843 189.554 45.5036 189.182 45.7615C188.117 46.4861 186.975 47.1738 185.756 47.8247C184.549 48.4756 183.369 49.102 182.239 49.7283C182.509 49.7897 182.881 49.8512 183.369 49.888C183.856 49.9248 184.395 49.9863 184.986 50.0477C185.576 50.1091 186.179 50.1828 186.782 50.2687C187.398 50.3547 187.95 50.4775 188.463 50.6249C188.977 50.7723 189.4 50.9565 189.747 51.1653C190.093 51.374 190.273 51.6319 190.298 51.9267C190.324 52.2706 190.196 52.5285 189.926 52.725C189.657 52.9215 189.323 53.0197 188.925 53.0443C188.463 53.0689 187.963 53.032 187.462 52.9338C186.949 52.8355 186.436 52.7741 185.922 52.7618C185.768 52.7618 185.486 52.7618 185.075 52.725C184.665 52.7004 184.203 52.6759 183.677 52.6513C183.151 52.6145 182.599 52.5899 182.021 52.553C181.444 52.5162 180.905 52.4916 180.417 52.4548C179.929 52.418 179.519 52.4057 179.185 52.3934C178.851 52.3811 178.672 52.3811 178.646 52.3811L178.544 52.4425C178.364 52.8724 178.146 53.425 177.889 54.1128C177.632 54.8005 177.389 55.5251 177.158 56.262C176.927 57.0112 176.734 57.7235 176.567 58.4235C176.413 59.1113 176.349 59.6639 176.362 60.0692C176.388 60.4745 176.503 60.7693 176.708 60.9658C176.914 61.1623 177.042 61.3956 177.093 61.7026C177.093 61.9728 176.965 62.2184 176.721 62.4395C176.477 62.6606 176.195 62.7465 175.887 62.722C175.515 62.7465 175.181 62.6729 174.886 62.5009C174.591 62.329 174.347 62.1079 174.155 61.85C173.962 61.5921 173.795 61.2973 173.693 61.0026C173.577 60.7078 173.513 60.4254 173.487 60.1675C173.423 59.3323 173.487 58.3498 173.693 57.1954C173.898 56.0409 174.168 54.8128 174.527 53.4864C174.886 52.16 175.297 50.8091 175.772 49.4213C176.246 48.0212 176.734 46.6826 177.235 45.3808C177.735 44.0789 178.236 42.8631 178.723 41.7455C179.211 40.6156 179.647 39.6577 180.019 38.8717C180.302 38.3436 180.699 37.6435 181.187 36.7838C181.675 35.9241 182.252 35.0644 182.907 34.2293C183.561 33.3942 184.28 32.6573 185.037 32.0432C185.807 31.4292 186.603 31.0976 187.424 31.0484C187.912 31.0239 188.361 31.1467 188.758 31.4169C189.156 31.6871 189.387 32.0555 189.426 32.5222C189.451 32.8047 189.323 33.0871 189.054 33.3819C188.168 34.303 187.334 35.3346 186.551 36.5136C185.768 37.6804 185.037 38.8962 184.344 40.1366C183.651 41.377 182.997 42.6297 182.381 43.8702C181.752 45.1106 181.174 46.2773 180.61 47.3703H180.674Z" fill="#F2F2F2"/>
<path d="M193.391 48.0704C193.635 47.5177 193.93 47.0633 194.277 46.7194C194.623 46.3633 195.021 46.1913 195.457 46.1913C195.971 46.1913 196.394 46.351 196.728 46.6826C197.061 47.0142 197.228 47.4195 197.228 47.9107C197.228 48.0212 197.164 48.3037 197.049 48.7581C196.92 49.2125 196.779 49.7775 196.599 50.4407C196.42 51.1039 196.227 51.8039 195.996 52.553C195.778 53.3022 195.56 54.0022 195.367 54.6654C195.162 55.3286 194.995 55.8936 194.828 56.3725C194.674 56.8515 194.572 57.1463 194.533 57.2568C194.289 57.7726 193.853 58.0182 193.237 58.0182C192.75 58.0182 192.403 57.8954 192.223 57.6498C192.031 57.4042 191.915 57.1094 191.877 56.7778C191.787 56.1638 191.774 55.4637 191.826 54.69C191.877 53.9163 191.992 53.1303 192.146 52.332C192.3 51.5337 192.493 50.7723 192.711 50.0354C192.929 49.2985 193.173 48.6599 193.417 48.1072L193.391 48.0704ZM199.666 39.8296C199.666 40.0629 199.589 40.3454 199.448 40.6647C199.307 40.984 199.115 41.2911 198.884 41.5858C198.653 41.8806 198.409 42.1385 198.139 42.3473C197.87 42.556 197.613 42.6666 197.344 42.6666C197.036 42.6666 196.715 42.5561 196.407 42.335C196.086 42.1139 195.932 41.8437 195.932 41.5244C195.932 41.2051 195.971 40.8489 196.035 40.4559C196.099 40.0629 196.202 39.6945 196.356 39.3383C196.497 38.9822 196.702 38.6997 196.972 38.4664C197.241 38.233 197.562 38.1102 197.96 38.1102C198.473 38.1102 198.884 38.2699 199.204 38.6015C199.525 38.9331 199.679 39.3383 199.679 39.8296H199.666Z" fill="#F2F2F2"/>
</svg>
