<svg width="22" height="18" viewBox="0 0 22 18" fill="none" xmlns="http://www.w3.org/2000/svg">
<path d="M3.15883 10.3616V15.5616H0.282715V2.00165H4.22738C6.0649 2.00165 7.43305 2.34165 8.31186 3.01165C9.19068 3.68165 9.64007 4.70165 9.64007 6.07165C9.64007 6.87165 9.42037 7.58165 8.98096 8.20165C8.54155 8.82165 7.92239 9.31165 7.12347 9.66165C9.16072 12.7116 10.4889 14.6816 11.1081 15.5716H7.92239L4.68676 10.3716H3.15883V10.3616ZM3.15883 8.02165H4.08757C4.99635 8.02165 5.66544 7.87165 6.09486 7.57165C6.52428 7.27165 6.74398 6.79165 6.74398 6.14165C6.74398 5.49165 6.52428 5.04165 6.08487 4.77165C5.64547 4.50165 4.9564 4.36165 4.03764 4.36165H3.16881V8.02165H3.15883Z" fill="white"/>
<path d="M21.3842 11.7177C21.3842 12.826 21.0247 13.7126 20.3057 14.3887C19.5867 15.0647 18.578 15.4637 17.2698 15.5967V17.7357H15.9815V15.6299C14.4536 15.5967 13.1054 15.2975 11.947 14.7322V11.9726C12.4962 12.2719 13.1554 12.5379 13.9243 12.7706C14.6933 13.0033 15.3823 13.1363 15.9815 13.1807V9.9445L15.3524 9.66743C14.1141 9.12438 13.2253 8.53699 12.706 7.89419C12.1867 7.25139 11.927 6.46452 11.927 5.52248C11.927 4.51395 12.2865 3.68275 12.9956 3.02887C13.7046 2.37498 14.7033 1.98709 15.9715 1.84301V0.258179H17.2598V1.82085C18.6979 1.88734 19.9961 2.20874 21.1545 2.78504L20.2657 5.23433C19.2871 4.79102 18.2784 4.51395 17.2498 4.41421V7.49521C18.4782 8.0161 19.347 8.47049 19.8663 8.85839C20.3856 9.24629 20.7651 9.66743 21.0047 10.1218C21.2444 10.5873 21.3643 11.1193 21.3643 11.7288L21.3842 11.7177ZM14.7632 5.53357C14.7632 5.84388 14.863 6.0877 15.0528 6.28719C15.2425 6.48668 15.5521 6.68617 15.9815 6.89674V4.43637C15.1726 4.56937 14.7632 4.9351 14.7632 5.52248V5.53357ZM18.5481 11.8729C18.5481 11.5847 18.4382 11.3298 18.2285 11.1304C18.0188 10.9309 17.6992 10.7203 17.2698 10.4986V13.1031C18.1186 12.9479 18.5481 12.5268 18.5481 11.8729Z" fill="white"/>
</svg>
