<svg width="25" height="31" viewBox="0 0 25 31" fill="none" xmlns="http://www.w3.org/2000/svg">
<path d="M18.9502 10.787C21.8363 10.787 24.1931 8.43696 24.1931 5.53696C24.1931 2.63696 21.8363 0.286957 18.9502 0.286957C16.0641 0.286957 13.7073 2.63696 13.7073 5.53696C13.7073 6.20696 13.8371 6.83696 14.0668 7.42696L8.3146 11.387C7.46574 10.797 6.44712 10.457 5.33862 10.457C2.45252 10.457 0.0957031 12.807 0.0957031 15.707C0.0957031 18.607 2.45252 20.957 5.33862 20.957C6.55697 20.957 7.67546 20.537 8.56426 19.837L13.907 23.517C13.7872 23.957 13.7173 24.427 13.7173 24.917C13.7173 27.807 16.0641 30.167 18.9602 30.167C21.8563 30.167 24.2031 27.817 24.2031 24.917C24.2031 22.017 21.8563 19.667 18.9602 19.667C17.6919 19.667 16.5335 20.117 15.6247 20.867L10.3618 17.237C10.5116 16.747 10.5915 16.237 10.5915 15.707C10.5915 15.067 10.4717 14.457 10.262 13.887L16.0442 9.89696C16.883 10.457 17.8817 10.787 18.9602 10.787H18.9502ZM18.9502 1.57696C21.1273 1.57696 22.9049 3.34696 22.9049 5.53696C22.9049 7.72696 21.1273 9.49696 18.9502 9.49696C16.7732 9.49696 14.9956 7.71696 14.9956 5.53696C14.9956 3.35696 16.7732 1.57696 18.9502 1.57696ZM5.33862 19.657C3.16156 19.657 1.38396 17.887 1.38396 15.697C1.38396 13.507 3.16156 11.737 5.33862 11.737C7.51568 11.737 9.29327 13.507 9.29327 15.697C9.29327 17.887 7.51568 19.657 5.33862 19.657ZM18.9502 20.947C21.1273 20.947 22.9049 22.717 22.9049 24.907C22.9049 27.097 21.1273 28.867 18.9502 28.867C16.7732 28.867 14.9956 27.087 14.9956 24.907C14.9956 22.727 16.7732 20.947 18.9502 20.947ZM14.7259 21.817C14.6161 21.967 14.5062 22.127 14.4164 22.297L9.493 18.907C9.61284 18.757 9.71271 18.597 9.81257 18.437L14.7259 21.827V21.817ZM9.65279 12.727C9.54294 12.567 9.4231 12.417 9.30326 12.277L14.686 8.56696C14.7958 8.72696 14.9157 8.87696 15.0455 9.01696L9.66277 12.727H9.65279Z" fill="#F15A24"/>
</svg>
