<svg width="42" height="40" viewBox="0 0 42 40" fill="none" xmlns="http://www.w3.org/2000/svg">
<path d="M21.0415 0C9.72379 0 0.541504 8.95833 0.541504 20C0.541504 31.0417 9.72379 40 21.0415 40C32.3592 40 41.5415 31.0417 41.5415 20C41.5415 8.95833 32.3592 0 21.0415 0ZM30.668 22.2833L19.2734 33.4C18.0519 34.5917 16.0617 34.5917 14.8403 33.4C13.6188 32.2083 13.6188 30.2667 14.8403 29.075L24.1421 20L14.8403 10.925C13.6188 9.73333 13.6188 7.79167 14.8403 6.6C16.0617 5.40833 18.0519 5.40833 19.2734 6.6L30.668 17.7167C31.3086 18.3417 31.6161 19.175 31.5819 20C31.6161 20.825 31.3086 21.65 30.668 22.2833Z" fill="white"/>
</svg>
