<svg width="87" height="90" viewBox="0 0 87 90" fill="none" xmlns="http://www.w3.org/2000/svg">
<path d="M40.79 40.0454C41.36 39.8154 41.74 39.2554 41.74 38.6354V1.56541C41.74 0.72541 41.06 0.0454102 40.22 0.0454102C30.15 0.0454102 20.62 3.90541 13.38 10.9254C13.09 11.2054 12.92 11.5854 12.92 11.9954C12.92 12.3954 13.07 12.7854 13.35 13.0754L39.14 39.6954C39.43 39.9954 39.83 40.1554 40.23 40.1554C40.42 40.1554 40.62 40.1154 40.8 40.0454H40.79ZM38.7 34.8854L16.6 12.0654C22.74 6.59541 30.49 3.45541 38.7 3.10541V34.8854Z" fill="#F15A24"/>
<path d="M40.1 46.5654C40.14 46.1254 39.99 45.6854 39.68 45.3654L13.89 18.7454C13.61 18.4554 13.23 18.2854 12.82 18.2854C12.42 18.2854 12.03 18.4354 11.74 18.7154C4.17 26.0454 0 35.8954 0 46.4254C0 54.4654 2.46 62.1854 7.11 68.7354C7.41 69.1554 7.87 69.3754 8.35 69.3754C8.65 69.3754 8.96 69.2854 9.23 69.0954L39.47 47.6654C39.83 47.4054 40.06 47.0054 40.1 46.5654ZM8.73 65.7254C5 59.9654 3.03 53.3354 3.03 46.4254C3.03 37.2254 6.48 28.6054 12.78 21.9754L36.26 46.2154L8.73 65.7254Z" fill="#F15A24"/>
<path d="M85.76 45.2154C85.68 44.5854 85.58 43.9654 85.47 43.3454C85.22 41.9854 84.91 40.6554 84.54 39.4054C84.38 38.8454 84.2 38.2954 84.02 37.7554C83.62 36.5754 83.15 35.3954 82.64 34.2654C82.42 33.7654 82.18 33.2754 81.94 32.7954C81.41 31.7454 80.82 30.6954 80.19 29.6654C79.91 29.2254 79.63 28.7854 79.34 28.3554C78.62 27.2954 77.83 26.2554 77.01 25.2654C76.68 24.8754 76.35 24.4854 76 24.1054C75.24 23.2654 74.43 22.4454 73.58 21.6554C73.21 21.3054 72.83 20.9654 72.44 20.6354C71.57 19.8754 70.65 19.1554 69.72 18.4854C69.3 18.1754 68.87 17.8754 68.44 17.5954C67.43 16.9254 66.4 16.3054 65.39 15.7654C64.92 15.5154 64.44 15.2654 63.96 15.0354C62.73 14.4354 61.44 13.8954 60.15 13.4254C59.61 13.2354 59.08 13.0454 58.53 12.8754C57.27 12.4854 55.96 12.1454 54.65 11.8754C54.04 11.7554 53.43 11.6454 52.81 11.5454C51.37 11.3254 49.87 11.1854 48.36 11.1254C47.83 11.1054 47.31 11.0854 46.78 11.0854C45.54 11.0854 44.53 12.0954 44.53 13.3354V49.2454L15.25 70.0054C14.76 70.3454 14.43 70.8754 14.33 71.4754C14.23 72.0654 14.37 72.6554 14.72 73.1554L14.87 73.3454C15.51 74.2254 16.21 75.1154 17.03 76.0654C17.36 76.4554 17.7 76.8354 18.05 77.2054C18.81 78.0154 19.64 78.8354 20.51 79.6154C20.89 79.9554 21.28 80.2954 21.67 80.6154C22.75 81.5154 23.76 82.2754 24.75 82.9554C25.11 83.1954 25.48 83.4254 25.85 83.6554L26.07 83.7954C27.09 84.4254 28.14 85.0154 29.2 85.5554C29.68 85.7954 30.17 86.0354 30.66 86.2554C31.73 86.7454 32.88 87.1854 34.17 87.6254C34.71 87.8054 35.26 87.9854 35.81 88.1454C37.18 88.5454 38.46 88.8554 39.75 89.0954C40.37 89.2054 41 89.2954 41.62 89.3854C43.32 89.6154 45.03 89.7354 46.65 89.7354C46.68 89.7354 46.77 89.7354 46.8 89.7354C47.51 89.7354 48.22 89.7154 48.91 89.6754C50.77 89.5754 52.65 89.3454 54.49 88.9754C55.42 88.7954 56.35 88.5654 57.34 88.2854C60.2 87.4954 62.95 86.3754 65.52 84.9854C68.1 83.5854 70.54 81.8754 72.77 79.9054C74.02 78.8054 75.21 77.6154 76.28 76.3854C78.26 74.1454 79.97 71.7054 81.37 69.1354C82.76 66.5754 83.87 63.8254 84.67 60.9554C84.95 59.9454 85.17 59.0154 85.36 58.0954C85.72 56.2654 85.96 54.3854 86.06 52.5154C86.1 51.8154 86.12 51.1154 86.12 50.4054V50.2954C86.12 48.6554 85.99 46.9554 85.77 45.2254L85.76 45.2154ZM83.02 52.3354C82.93 54.0554 82.71 55.7954 82.37 57.4854C82.2 58.3254 81.99 59.1854 81.74 60.1254C81 62.7654 79.98 65.3054 78.69 67.6654C77.4 70.0354 75.82 72.2854 73.99 74.3554C72.99 75.4854 71.9 76.5754 70.74 77.6054C68.67 79.4254 66.43 81.0054 64.05 82.2954C61.68 83.5854 59.14 84.6054 56.5 85.3454C55.58 85.6054 54.72 85.8154 53.87 85.9754C52.17 86.3154 50.44 86.5354 48.72 86.6254C48.08 86.6654 47.43 86.6854 46.78 86.6854C46.76 86.6854 46.7 86.6854 46.68 86.6854C45.15 86.6854 43.58 86.5754 42 86.3654C41.42 86.2854 40.84 86.2054 40.27 86.1054C39.09 85.8854 37.91 85.6054 36.64 85.2354C36.13 85.0854 35.63 84.9254 35.13 84.7554C33.94 84.3454 32.88 83.9354 31.89 83.4854C31.43 83.2754 30.98 83.0554 30.54 82.8454C29.57 82.3554 28.6 81.8054 27.66 81.2254L27.44 81.0854C27.1 80.8754 26.77 80.6654 26.44 80.4454C25.53 79.8254 24.6 79.1254 23.6 78.2954C23.24 77.9954 22.88 77.6854 22.53 77.3654C21.72 76.6354 20.96 75.8854 20.26 75.1354C19.94 74.7954 19.63 74.4354 19.32 74.0854C18.7 73.3754 18.16 72.6954 17.66 72.0254L46.94 51.2754C47.34 50.9954 47.58 50.5254 47.58 50.0354V14.1154C47.81 14.1154 48.03 14.1354 48.26 14.1354C49.66 14.1854 51.04 14.3154 52.37 14.5254C52.94 14.6154 53.51 14.7154 54.07 14.8254C55.28 15.0754 56.48 15.3854 57.65 15.7454C58.15 15.9054 58.65 16.0754 59.14 16.2554C60.33 16.6854 61.52 17.1854 62.65 17.7454C63.1 17.9654 63.54 18.1854 63.98 18.4254C64.91 18.9254 65.85 19.4854 66.79 20.1154C67.19 20.3754 67.58 20.6454 67.97 20.9354C68.83 21.5554 69.68 22.2254 70.49 22.9154C70.85 23.2254 71.2 23.5354 71.55 23.8554C72.34 24.5854 73.09 25.3454 73.79 26.1254C74.11 26.4754 74.42 26.8354 74.72 27.1954C75.48 28.1054 76.2 29.0654 76.87 30.0454C77.14 30.4454 77.4 30.8454 77.65 31.2554C78.23 32.1954 78.78 33.1654 79.27 34.1454C79.49 34.5854 79.71 35.0354 79.92 35.5054C80.39 36.5554 80.82 37.6354 81.19 38.7254C81.36 39.2254 81.52 39.7354 81.67 40.2454C82.01 41.4054 82.3 42.6254 82.53 43.8754C82.64 44.4454 82.73 45.0254 82.8 45.6054C83.01 47.1954 83.12 48.7754 83.12 50.2854V50.3854C83.12 51.0454 83.1 51.6954 83.07 52.3354H83.02Z" fill="#F15A24"/>
</svg>
