<svg width="79" height="85" viewBox="0 0 79 85" fill="none" xmlns="http://www.w3.org/2000/svg">
<path d="M9.83345 84.6481C8.10578 84.2681 6.42805 83.7581 5.00996 82.6481C1.62454 79.9781 0.216441 76.4781 1.15517 72.2781C2.0939 68.0781 4.86017 65.4981 9.04451 64.5381C9.68365 64.3881 9.82346 64.1781 9.81347 63.5781C9.7935 56.1681 9.80349 48.7581 9.80349 41.3481C9.80349 39.5981 10.4526 39.1581 12.0604 39.8181C15.5657 41.2581 19.071 42.7181 22.5762 44.1481C23.4051 44.4881 24.0243 44.9781 24.0043 45.9481C23.9843 46.8781 23.3951 47.3481 22.5862 47.6681C19.3805 48.9781 16.1948 50.3181 12.9792 51.6181C12.4399 51.8381 12.2502 52.1081 12.2502 52.6981C12.2801 56.3381 12.2702 59.9681 12.2502 63.6081C12.2502 64.1581 12.3301 64.4481 12.9692 64.5181C13.5884 64.5881 14.1975 64.8081 14.7768 65.0481C15.4558 65.3281 15.7055 65.9881 15.4558 66.6081C15.2062 67.2481 14.607 67.5581 13.9179 67.3281C12.2901 66.7681 10.6623 66.5981 8.97461 67.0681C5.24964 68.1181 2.86286 71.7381 3.39215 75.5281C3.92143 79.2781 7.13709 82.1181 10.892 82.1581C14.7568 82.1981 18.0024 79.4181 18.5916 75.5881C18.8612 73.8581 18.4718 72.2681 17.7428 70.7081C17.553 70.3081 17.553 69.6481 17.7627 69.2681C17.9225 68.9681 18.5617 68.7581 18.9411 68.8081C19.2907 68.8581 19.7301 69.2481 19.8799 69.5981C20.3892 70.7381 20.7886 71.9381 21.268 73.1881H33.3117C33.7611 71.3481 34.7498 69.8481 36.4075 68.8481C37.5959 68.1281 38.8942 67.8581 40.2823 67.9481C43.0585 68.1181 45.2256 70.0281 46.1943 73.1981H62.0429C62.7419 70.4881 64.4297 68.7481 67.1959 68.0281V52.4381C62.8818 51.6581 60.0256 49.1781 58.6375 44.9381C57.8386 45.3981 57.0596 45.8081 56.3406 46.2881C56.1509 46.4181 56.031 46.7781 56.031 47.0381C56.0011 48.9981 56.031 50.9481 56.011 52.9081C56.011 54.8981 54.9025 56.1081 52.9252 56.1181C45.3854 56.1481 37.8456 56.1481 30.3058 56.1181C28.3784 56.1181 27.2799 54.8981 27.2799 52.9581C27.2799 45.8781 27.2799 38.7981 27.2799 31.7181C27.2799 29.6781 28.4083 28.5381 30.4356 28.5381C37.8955 28.5381 45.3455 28.5381 52.8054 28.5381C54.8626 28.5381 55.9911 29.6981 56.0011 31.7881C56.0011 33.0781 56.021 34.3781 56.0011 35.6681C55.9911 36.1681 56.1109 36.4781 56.5803 36.7181C57.4291 37.1581 58.248 37.6681 59.1668 38.1981C60.8245 34.8281 63.5109 32.8181 67.2159 32.2081V16.6281C64.4796 15.9181 62.7519 14.2081 62.0529 11.4581H46.2243C44.8961 15.0481 42.7889 16.7381 39.6731 16.7181C36.6572 16.6981 34.5401 14.9681 33.2618 11.4581H21.1881C20.8985 12.3881 20.6588 13.3181 20.3193 14.2081C19.9598 15.1681 19.2807 15.4981 18.5417 15.1681C17.8526 14.8681 17.6828 14.1881 18.0424 13.2581C19.5803 9.29814 18.0823 5.14814 14.4572 3.32814C11.2515 1.71814 7.43668 2.51814 5.10983 5.27814C2.86287 7.94814 2.73304 11.8781 4.80025 14.6981C6.89741 17.5781 10.6324 18.6481 13.9179 17.3081C14.1177 17.2281 14.3174 17.1181 14.5271 17.0481C15.2162 16.8181 15.8353 17.0681 16.115 17.6781C16.3946 18.2881 16.2148 19.0181 15.5258 19.2681C14.3174 19.7081 13.0791 20.1881 11.8208 20.2981C6.48797 20.7581 1.83425 16.9881 0.975415 11.5981C0.166509 6.53814 3.58189 1.52814 8.70497 0.28814C14.3274 -1.08186 19.8799 2.56814 21.0283 8.37814C21.0583 8.53814 21.0882 8.69814 21.1182 8.88814H33.2917C34.3603 5.46814 36.5873 3.51814 40.3023 3.66814C42.4494 3.75814 45.2656 5.19814 46.2143 8.89814H62.0828C62.5422 6.99814 63.5708 5.49814 65.2685 4.49814C66.5468 3.75814 67.9449 3.47814 69.4029 3.68814C72.4588 4.13814 74.8056 6.64814 75.0353 9.62814C75.2351 12.2281 73.8569 15.5481 69.8024 16.6281V32.1081C70.7911 32.4281 71.8097 32.6681 72.7484 33.0881C75.2451 34.2081 76.9727 36.1081 77.9913 38.6481C78.3808 39.6181 78.1811 40.3381 77.482 40.6381C76.7231 40.9581 76.1239 40.5781 75.6845 39.5681C74.3762 36.4881 72.0494 34.7481 68.6939 34.6681C65.4882 34.5881 63.1314 36.1181 61.6235 38.9481C61.5735 39.0481 61.5336 39.1481 61.4936 39.2481C61.4737 39.2981 61.4737 39.3581 61.4637 39.4681C61.6734 39.5981 61.9031 39.7381 62.1328 39.8881C63.3411 40.6881 63.3312 42.1281 62.1128 42.9481C60.8245 43.8081 60.7946 43.8181 61.4337 45.2481C62.7819 48.2781 65.1487 49.9481 68.4542 49.9781C71.7298 50.0081 74.0866 48.3881 75.5347 45.4481C75.5546 45.3981 75.5746 45.3481 75.5946 45.2981C76.0639 44.2181 76.6831 43.8481 77.4421 44.1881C78.1511 44.5081 78.3209 45.2381 77.8815 46.2481C76.4734 49.4681 74.0467 51.4781 70.6213 52.2681C70.3517 52.3281 70.092 52.3881 69.8024 52.4581V68.0381C71.6799 68.4981 73.1679 69.4981 74.1665 71.1681C74.9255 72.4381 75.2151 73.8281 75.0154 75.2981C74.6059 78.3581 72.1293 80.7381 69.1433 80.9981C65.8378 81.2781 63.2612 79.3881 62.0729 75.7581H46.2642C44.8961 79.4281 42.709 81.1181 39.4534 81.0081C36.5773 80.9081 34.2604 78.9381 33.3517 75.7781H21.4178C20.7187 77.3281 20.2094 78.8881 19.3606 80.2281C17.8226 82.6281 15.5158 84.0281 12.6896 84.5081C12.5598 84.5281 12.4399 84.6081 12.3201 84.6581H9.84343L9.83345 84.6481ZM59.8059 41.4181C58.0483 40.3981 56.4205 39.4281 54.7627 38.5081C53.9339 38.0481 53.5244 37.4181 53.5544 36.4481C53.5943 34.9081 53.5544 33.3681 53.5743 31.8181C53.5843 31.1981 53.3446 30.9981 52.7455 30.9981C45.3455 31.0081 37.9455 31.0081 30.5455 30.9981C29.9862 30.9981 29.7765 31.1981 29.7765 31.7781C29.7865 38.7981 29.7965 45.8281 29.7765 52.8481C29.7765 53.4781 30.0262 53.6581 30.6054 53.6581C37.9754 53.6581 45.3455 53.6581 52.7155 53.6581C53.3646 53.6581 53.5743 53.3981 53.5643 52.7681C53.5344 50.6481 53.5843 48.5281 53.5444 46.4081C53.5244 45.4381 53.8939 44.7981 54.7228 44.3281C56.3805 43.4081 58.0083 42.4381 59.7859 41.4081L59.8059 41.4181ZM39.733 14.2281C42 14.2381 43.8375 12.4181 43.8375 10.1681C43.8375 7.94814 42.0299 6.12814 39.8129 6.11814C37.536 6.10814 35.7285 7.90814 35.7285 10.1781C35.7285 12.4181 37.5061 14.2181 39.733 14.2281ZM39.743 70.4181C37.506 70.4181 35.7285 72.2181 35.7285 74.4581C35.7285 76.7381 37.536 78.5381 39.8029 78.5281C42.02 78.5181 43.8275 76.6981 43.8375 74.4781C43.8375 72.2281 42.01 70.3981 39.743 70.4081V70.4181ZM68.4842 14.2281C70.7112 14.2281 72.5387 12.4481 72.5587 10.2381C72.5886 7.96814 70.7811 6.12814 68.5241 6.11814C66.2572 6.11814 64.4496 7.91814 64.4496 10.1981C64.4496 12.4281 66.2472 14.2281 68.4742 14.2381L68.4842 14.2281ZM64.4596 74.4481C64.4596 76.6881 66.2272 78.5081 68.4442 78.5281C70.7112 78.5581 72.5587 76.7481 72.5687 74.4881C72.5687 72.2481 70.8011 70.4281 68.5741 70.4081C66.2971 70.3881 64.4696 72.1781 64.4596 74.4381V74.4481ZM20.3392 45.9081C17.563 44.7581 14.9765 43.6981 12.3401 42.6081V49.2181C15.0065 48.1181 17.583 47.0481 20.3392 45.9081Z" fill="#EBEBEC"/>
<path d="M15.9652 10.2382C15.9352 12.9682 13.7082 15.1582 10.9919 15.1282C8.26557 15.0882 6.05855 12.8582 6.07853 10.1582C6.0985 7.43819 8.32549 5.22819 11.0418 5.23819C13.8181 5.23819 15.9951 7.45819 15.9752 10.2482L15.9652 10.2382ZM13.4885 10.1382C13.4685 8.76819 12.36 7.68819 10.9919 7.70819C9.64371 7.72819 8.51523 8.87819 8.54519 10.2082C8.57515 11.5482 9.7236 12.6682 11.0618 12.6382C12.42 12.6182 13.4985 11.4982 13.4785 10.1282L13.4885 10.1382Z" fill="#EBEBEC"/>
<path d="M15.9651 74.5082C15.9552 77.2482 13.7481 79.4282 11.0118 79.4182C8.29551 79.4182 6.06852 77.1882 6.06852 74.4782C6.06852 71.7382 8.35543 69.4782 11.0817 69.5182C13.818 69.5582 15.9751 71.7582 15.9552 74.5082H15.9651ZM13.4885 74.4882C13.4885 73.1182 12.4 72.0082 11.0418 71.9982C9.70361 71.9982 8.55516 73.1182 8.54517 74.4582C8.53519 75.7982 9.66366 76.9282 11.0118 76.9382C12.38 76.9382 13.4785 75.8582 13.4885 74.4882Z" fill="#EBEBEC"/>
<path d="M73.4475 42.3482C73.4375 45.0782 71.2205 47.2882 68.5042 47.2782C65.7978 47.2782 63.5709 45.0582 63.5609 42.3382C63.5509 39.5882 65.7978 37.3482 68.5541 37.3682C71.2704 37.3882 73.4575 39.6182 73.4475 42.3482ZM68.4942 39.8482C67.146 39.8482 66.0275 40.9882 66.0375 42.3382C66.0375 43.6882 67.176 44.8082 68.5242 44.7982C69.8723 44.7982 70.9808 43.6682 70.9709 42.3082C70.9709 40.9482 69.8524 39.8382 68.4942 39.8482Z" fill="#EBEBEC"/>
<path d="M41.7803 35.6881C43.7576 35.6881 45.7349 35.6881 47.7122 35.6881C48.651 35.6881 49.1503 36.1281 49.1503 36.8981C49.1503 37.6581 48.641 38.1581 47.7322 38.1581C43.6977 38.1681 39.6531 38.1681 35.6186 38.1581C34.7298 38.1581 34.1705 37.6481 34.1606 36.9181C34.1606 36.1481 34.7098 35.6881 35.6785 35.6881C37.7158 35.6881 39.743 35.6881 41.7803 35.6881Z" fill="#EBEBEC"/>
<path d="M41.7403 41.0981C43.7476 41.0981 45.7549 41.0881 47.7522 41.0981C48.7808 41.0981 49.37 41.7981 49.1203 42.6681C48.9206 43.3681 48.3614 43.5581 47.7122 43.5681C46.5638 43.5681 45.4054 43.5681 44.2569 43.5681C41.5705 43.5681 38.8742 43.5681 36.1878 43.5681C35.9382 43.5681 35.6885 43.5681 35.4488 43.5481C34.6699 43.4681 34.1705 42.9781 34.1905 42.2981C34.2005 41.6181 34.7098 41.1081 35.4988 41.0981C37.1965 41.0781 38.9041 41.0981 40.6019 41.0881C40.9813 41.0881 41.3708 41.0881 41.7503 41.0881L41.7403 41.0981Z" fill="#EBEBEC"/>
<path d="M39.054 48.9581C37.8955 48.9581 36.7471 48.9581 35.5886 48.9581C34.7298 48.9581 34.2005 48.5081 34.1706 47.7881C34.1306 47.0581 34.6899 46.4981 35.5587 46.4881C37.8656 46.4681 40.1824 46.4681 42.4893 46.4881C43.3382 46.4881 43.8475 46.9981 43.8575 47.7181C43.8575 48.4881 43.3482 48.9481 42.4394 48.9581C41.3109 48.9681 40.1824 48.9581 39.054 48.9581Z" fill="#EBEBEC"/>
</svg>
