<svg width="95" height="89" viewBox="0 0 95 89" fill="none" xmlns="http://www.w3.org/2000/svg">
<path d="M12.76 72.1313H57.59L80.7 88.0748C81.11 88.3626 81.59 88.5065 82.07 88.5065C82.47 88.5065 82.87 88.414 83.23 88.2084C84.03 87.7664 84.53 86.9029 84.53 85.9675V70.8669C89.02 68.9138 94.44 64.6786 94.44 59.0043V13.6101C94.44 6.37328 88.71 0.493408 81.68 0.493408H12.76C5.73 0.493408 0 6.38356 0 13.6101V59.0043C0 66.2411 5.73 72.121 12.76 72.121V72.1313ZM4.93 13.6101C4.93 9.16931 8.44 5.55092 12.77 5.55092H81.69C86.01 5.55092 89.53 9.16931 89.53 13.6101V59.0043C89.53 61.9751 85.21 65.4393 81.34 66.6934C80.31 67.0224 79.61 67.9989 79.61 69.1091V81.2183L59.72 67.4952C59.31 67.2177 58.84 67.0635 58.35 67.0635H12.76C8.44 67.0635 4.92 63.4554 4.92 59.0043V13.6101H4.93Z" fill="white"/>
<path d="M18.09 26.9015H76.22C78.77 26.9015 80.85 24.7633 80.85 22.142C80.85 19.5208 78.77 17.3826 76.22 17.3826H18.09C15.54 17.3826 13.46 19.5208 13.46 22.142C13.46 24.7633 15.54 26.9015 18.09 26.9015ZM18.09 20.4151H76.22C77.14 20.4151 77.89 21.186 77.89 22.142C77.89 23.098 77.14 23.869 76.22 23.869H18.09C17.16 23.869 16.41 23.098 16.41 22.142C16.41 21.186 17.16 20.4151 18.09 20.4151Z" fill="white"/>
<path d="M18.09 40.8713H76.22C78.77 40.8713 80.85 38.7332 80.85 36.1119C80.85 33.4906 78.77 31.3525 76.22 31.3525H18.09C15.54 31.3525 13.46 33.4906 13.46 36.1119C13.46 38.7332 15.54 40.8713 18.09 40.8713ZM18.09 34.3849H76.22C77.14 34.3849 77.89 35.1559 77.89 36.1119C77.89 37.0679 77.14 37.8388 76.22 37.8388H18.09C17.16 37.8388 16.41 37.0679 16.41 36.1119C16.41 35.1559 17.16 34.3849 18.09 34.3849Z" fill="white"/>
<path d="M18.09 54.358H76.22C78.77 54.358 80.85 52.2199 80.85 49.5986C80.85 46.9773 78.77 44.8392 76.22 44.8392H18.09C15.54 44.8392 13.46 46.9773 13.46 49.5986C13.46 52.2199 15.54 54.358 18.09 54.358ZM18.09 47.8716H76.22C77.14 47.8716 77.89 48.6426 77.89 49.5986C77.89 50.5546 77.14 51.3256 76.22 51.3256H18.09C17.16 51.3256 16.41 50.5546 16.41 49.5986C16.41 48.6426 17.16 47.8716 18.09 47.8716Z" fill="white"/>
</svg>
