<svg width="28" height="23" viewBox="0 0 28 23" fill="none" xmlns="http://www.w3.org/2000/svg">
<path d="M11.2585 7.68695C11.2585 9.83695 10.7791 11.4969 9.81046 12.6769C8.84177 13.8569 7.47361 14.4469 5.68603 14.4469C4.0083 14.4469 2.68009 13.8369 1.70141 12.6269C0.722737 11.4069 0.233398 9.76695 0.233398 7.69695C0.233398 5.62695 0.712751 3.88695 1.67146 2.73695C2.63016 1.58695 3.96835 0.996948 5.68603 0.996948C7.40371 0.996948 8.75189 1.59695 9.75054 2.79695C10.7492 3.99695 11.2585 5.62695 11.2585 7.68695ZM4.62746 7.74695C4.62746 8.86695 4.71734 9.67695 4.90708 10.1769C5.09683 10.6769 5.36646 10.9269 5.73596 10.9269C6.10546 10.9269 6.38509 10.6869 6.56484 10.1969C6.7446 9.70695 6.83448 8.89695 6.83448 7.74695C6.83448 6.59695 6.7446 5.81695 6.56484 5.31695C6.38509 4.81695 6.10546 4.56695 5.73596 4.56695C5.36646 4.56695 5.07685 4.81695 4.8971 5.32695C4.71734 5.83695 4.62746 6.63695 4.62746 7.74695ZM21.9241 1.30695L10.0601 22.7269H5.71599L17.58 1.30695H21.9241ZM27.5265 16.2169C27.5265 18.3569 27.0372 20.0169 26.0685 21.1869C25.0998 22.3569 23.7217 22.9469 21.954 22.9469C20.2763 22.9469 18.9481 22.3369 17.9694 21.1269C16.9908 19.9069 16.5014 18.2769 16.5014 16.2069C16.5014 14.1369 16.9808 12.4069 17.9395 11.2469C18.8982 10.0869 20.2364 9.50695 21.964 9.50695C23.6917 9.50695 25.0299 10.1069 26.0285 11.3069C27.0272 12.5069 27.5365 14.1369 27.5365 16.1969L27.5265 16.2169ZM20.8955 16.2769C20.8955 17.3969 20.9854 18.2069 21.1751 18.7069C21.3648 19.2069 21.6345 19.4569 22.004 19.4569C22.4234 19.4569 22.713 19.1669 22.8728 18.5969C23.0326 18.0269 23.1125 17.2469 23.1125 16.2769C23.1125 15.3069 23.0326 14.5269 22.8728 13.9569C22.713 13.3869 22.4234 13.0969 22.004 13.0969C21.6245 13.0969 21.3449 13.3469 21.1651 13.8569C20.9854 14.3669 20.8955 15.1669 20.8955 16.2769Z" fill="white"/>
</svg>
