<svg width="29" height="29" viewBox="0 0 29 29" fill="none" xmlns="http://www.w3.org/2000/svg">
<path d="M9.23382 28.657C8.76445 28.437 8.60467 28.067 8.62464 27.557C8.6546 26.907 8.62464 26.257 8.62464 25.607C8.62464 25.587 8.61466 25.577 8.59468 25.537C8.49482 25.537 8.38497 25.537 8.2851 25.537C6.04813 25.537 3.82113 25.537 1.58416 25.537C0.625453 25.537 0.0961681 25.027 0.0961681 24.067C0.0861816 16.577 0.0861816 9.09695 0.0861816 1.61695C0.0861816 0.646953 0.595493 0.136953 1.5542 0.136953C1.9936 0.136953 2.42302 0.136953 2.86243 0.136953C3.17201 0.136953 3.35177 0.286953 3.36176 0.546953C3.36176 0.806953 3.182 0.976953 2.86243 0.976953C2.41304 0.976953 1.95366 0.976953 1.50427 0.976953C1.09482 0.976953 0.935035 1.13695 0.925048 1.54695C0.925048 1.60695 0.925048 1.65695 0.925048 1.71695C0.925048 9.12695 0.925048 16.537 0.925048 23.937C0.925048 24.017 0.925048 24.107 0.925048 24.187C0.945021 24.527 1.11479 24.687 1.45433 24.697C1.86378 24.697 2.27323 24.697 2.68267 24.697C4.56014 24.697 6.42761 24.697 8.30507 24.697H8.64462C8.64462 24.577 8.64462 24.477 8.64462 24.377C8.64462 22.997 8.64462 21.607 8.64462 20.227C8.64462 19.557 8.9542 19.237 9.63328 19.237C9.93288 19.237 10.2225 19.237 10.552 19.237C10.552 18.877 10.552 18.547 10.552 18.217C10.552 17.557 10.8716 17.247 11.5307 17.247C13.9574 17.247 16.3842 17.247 18.8209 17.247C18.9407 17.247 19.0605 17.247 19.2203 17.247V16.937C19.2203 11.827 19.2203 6.72695 19.2203 1.61695C19.2203 1.09695 19.0805 0.966953 18.5612 0.966953C14.0972 0.966953 9.62329 0.966953 5.15933 0.966953C4.70993 0.966953 4.5102 0.836953 4.5102 0.546953C4.5102 0.256953 4.70993 0.136953 5.16931 0.136953C9.63328 0.136953 14.1072 0.146953 18.5712 0.126953C19.4001 0.126953 20.0692 0.676953 20.0692 1.62695C20.0492 6.70695 20.0592 11.787 20.0592 16.857C20.0592 16.977 20.0592 17.097 20.0592 17.247H20.4087C22.6557 17.247 24.8927 17.247 27.1396 17.247C27.9186 17.247 28.1982 17.527 28.1982 18.297C28.1982 19.197 28.1982 20.097 28.1982 20.997C28.1982 21.097 28.2182 21.227 28.1682 21.297C28.0684 21.427 27.9385 21.567 27.7887 21.607C27.599 21.657 27.4392 21.517 27.3793 21.317C27.3593 21.217 27.3593 21.117 27.3593 21.017C27.3593 20.157 27.3593 19.287 27.3593 18.427C27.3593 18.327 27.3593 18.227 27.3593 18.087C27.2295 18.087 27.1296 18.087 27.0298 18.087C21.9267 18.087 16.8136 18.087 11.7105 18.087C11.4608 18.087 11.3609 18.147 11.3809 18.407C11.4009 18.677 11.3809 18.937 11.3809 19.247H11.7304C16.2344 19.247 20.7383 19.247 25.2422 19.247C25.9812 19.247 26.2708 19.537 26.2708 20.267C26.2708 22.007 26.2708 23.737 26.2708 25.477V25.817H27.3493C27.3493 25.537 27.3493 25.267 27.3493 24.997C27.3493 24.407 27.3493 23.807 27.3493 23.217C27.3493 22.927 27.5191 22.757 27.7588 22.757C28.0084 22.757 28.1682 22.927 28.1782 23.217C28.1782 24.097 28.1882 24.977 28.1782 25.867C28.1782 26.357 27.8387 26.667 27.3394 26.677C26.9998 26.677 26.6603 26.677 26.2808 26.677C26.2808 27.007 26.2608 27.317 26.2808 27.617C26.3207 28.127 26.131 28.477 25.6516 28.667H9.23382V28.657ZM25.4219 20.107H9.48348V27.807H25.4219V20.107Z" fill="#F15A24"/>
<path d="M16.7437 5.17696C16.7437 6.06696 16.7437 6.94696 16.7437 7.83696C16.7437 7.98696 16.6538 8.18696 16.534 8.27696C16.2644 8.47696 15.9248 8.25696 15.9248 7.87696C15.9248 7.08696 15.9248 6.29696 15.9248 5.50696C15.9248 5.40696 15.9248 5.30696 15.9248 5.18696H15.1858C15.1858 5.38696 15.1858 5.57696 15.1858 5.76696C15.1858 6.31696 15.1858 6.86696 15.1858 7.40696C15.1858 8.03696 14.8862 8.33696 14.267 8.33696C11.5208 8.33696 8.78446 8.33696 6.03817 8.33696C5.41901 8.33696 5.1294 8.03696 5.1294 7.40696C5.1294 6.73696 5.1294 6.06696 5.1294 5.40696C5.1294 5.22696 5.07947 5.15696 4.88972 5.16696C4.54019 5.17696 4.18068 5.16696 3.83115 5.16696C3.04222 5.16696 2.47299 4.61696 2.48297 3.88696C2.49296 3.16696 3.06219 2.63696 3.83115 2.63696C8.03547 2.63696 12.2498 2.63696 16.4541 2.63696C17.1731 2.63696 17.6924 3.04696 17.8023 3.70696C17.9121 4.32696 17.5326 4.89696 16.8635 5.12696C16.8336 5.12696 16.8136 5.14696 16.7537 5.16696L16.7437 5.17696ZM5.94829 7.48696H14.327C14.327 6.80696 14.317 6.14696 14.327 5.49696C14.327 5.23696 14.2571 5.16696 14.0074 5.16696C11.4209 5.16696 8.83439 5.16696 6.25787 5.16696C6.15801 5.16696 6.05814 5.16696 5.94829 5.16696V7.48696ZM10.1227 4.33696C12.1699 4.33696 14.2171 4.33696 16.2644 4.33696C16.3642 4.33696 16.4641 4.33696 16.5739 4.33696C16.8036 4.30696 16.9634 4.12696 16.9634 3.90696C16.9634 3.68696 16.7936 3.51696 16.554 3.48696C16.4841 3.48696 16.4042 3.48696 16.3343 3.48696C12.1998 3.48696 8.06543 3.48696 3.93102 3.48696C3.84114 3.48696 3.74127 3.48696 3.6514 3.48696C3.42171 3.52696 3.29188 3.68696 3.29188 3.91696C3.29188 4.12696 3.41172 4.28696 3.64141 4.32696C3.75126 4.34696 3.86111 4.33696 3.97096 4.33696C6.0182 4.33696 8.06543 4.33696 10.1127 4.33696H10.1227Z" fill="#F15A24"/>
<path d="M5.43898 22.6869C5.03952 22.5369 4.67002 22.4169 4.32049 22.2569C4.05086 22.1369 3.98095 21.8769 4.10079 21.6569C4.21064 21.4469 4.44033 21.4069 4.70997 21.5169C4.92967 21.6169 5.16934 21.6969 5.44897 21.8069C5.44897 21.1669 5.44897 20.6069 5.44897 20.0469C5.44897 19.9969 5.36907 19.9369 5.30916 19.8969C5.1993 19.8269 5.07947 19.7869 4.95963 19.7269C4.48028 19.4869 4.19067 19.1069 4.20065 18.5669C4.22063 17.9769 4.52022 17.5469 5.04951 17.2969C5.16934 17.2369 5.30916 17.1969 5.44897 17.1469C5.44897 17.0669 5.44897 16.9969 5.44897 16.9269C5.46894 16.6669 5.60875 16.5169 5.83844 16.5069C6.06813 16.4969 6.26786 16.6369 6.26786 16.8769C6.26786 17.0969 6.35774 17.1669 6.55747 17.2169C6.76719 17.2769 6.96692 17.3769 7.15666 17.4969C7.37636 17.6269 7.41631 17.8869 7.28648 18.0769C7.16665 18.2569 6.94694 18.3069 6.71725 18.1969C6.58743 18.1369 6.4576 18.0669 6.27785 17.9769C6.27785 18.4569 6.27785 18.8769 6.27785 19.2969C6.27785 19.3369 6.34775 19.3969 6.39768 19.4169C6.48756 19.4569 6.58743 19.4869 6.68729 19.5169C7.80578 19.9369 8.0854 21.1869 7.25652 22.0369C7.1267 22.1769 6.96692 22.2969 6.78716 22.3869C6.50754 22.5269 6.19795 22.5769 6.21793 23.0169C6.21793 23.2069 6.00821 23.3169 5.79849 23.2869C5.58878 23.2669 5.45895 23.1369 5.43898 22.9269C5.42899 22.8369 5.42899 22.7469 5.42899 22.6869H5.43898ZM6.30781 20.2969V21.6869C6.72724 21.4969 6.93696 21.1869 6.907 20.8569C6.87704 20.5769 6.65733 20.3669 6.30781 20.2969ZM5.43898 18.0469C5.15936 18.1869 5.01955 18.3769 5.03952 18.6369C5.04951 18.8569 5.22926 18.9469 5.43898 19.0169V18.0369V18.0469Z" fill="#F15A24"/>
<path d="M7.57609 10.267C8.56475 10.267 9.55341 10.267 10.5521 10.267C10.9116 10.267 11.0913 10.407 11.0913 10.687C11.0913 10.957 10.9016 11.107 10.5521 11.107C8.56475 11.107 6.56745 11.107 4.58013 11.107C4.26056 11.107 4.08081 10.967 4.06084 10.727C4.04086 10.457 4.22062 10.277 4.5302 10.277C5.54882 10.277 6.56745 10.277 7.58607 10.277L7.57609 10.267Z" fill="#F15A24"/>
<path d="M7.55606 13.237C6.54742 13.237 5.53879 13.237 4.53015 13.237C4.30046 13.237 4.13069 13.167 4.06078 12.937C3.98089 12.677 4.15066 12.437 4.44027 12.407C4.64 12.387 4.84972 12.407 5.04945 12.407C6.84702 12.407 8.64459 12.407 10.4422 12.407C10.532 12.407 10.6319 12.407 10.7218 12.417C10.9615 12.457 11.1013 12.637 11.0813 12.867C11.0513 13.107 10.9115 13.237 10.6719 13.237C10.2324 13.237 9.78305 13.237 9.34365 13.237C8.75444 13.237 8.15525 13.237 7.56605 13.237H7.55606Z" fill="#F15A24"/>
<path d="M7.57608 14.5569C8.56474 14.5569 9.5534 14.5569 10.5521 14.5569C10.9116 14.5569 11.0913 14.7069 11.0813 14.9769C11.0813 15.2469 10.8916 15.3969 10.5421 15.3969C8.55475 15.3969 6.55745 15.3969 4.57014 15.3969C4.25057 15.3969 4.07081 15.2569 4.05084 15.0169C4.03087 14.7469 4.21062 14.5669 4.5202 14.5669C5.53883 14.5669 6.55745 14.5669 7.57608 14.5669V14.5569Z" fill="#F15A24"/>
<path d="M15.1159 14.5569C15.4954 14.5569 15.8749 14.5569 16.2543 14.5569C16.5539 14.5569 16.7437 14.7269 16.7337 14.9769C16.7337 15.2269 16.544 15.3869 16.2444 15.3869C15.4754 15.3869 14.7064 15.3869 13.9375 15.3869C13.6379 15.3869 13.4581 15.2169 13.4581 14.9669C13.4581 14.7169 13.6379 14.5569 13.9475 14.5569C14.3369 14.5569 14.7264 14.5569 15.1159 14.5569Z" fill="#F15A24"/>
<path d="M15.1159 10.267C15.5054 10.267 15.8948 10.267 16.2843 10.267C16.5639 10.267 16.7437 10.437 16.7437 10.677C16.7437 10.917 16.5639 11.097 16.2843 11.097C15.4954 11.097 14.7064 11.097 13.9275 11.097C13.6479 11.097 13.4681 10.927 13.4681 10.677C13.4681 10.427 13.6479 10.267 13.9475 10.257C14.3369 10.257 14.7264 10.257 15.1159 10.257V10.267Z" fill="#F15A24"/>
<path d="M15.0959 13.237C14.7064 13.237 14.317 13.237 13.9275 13.237C13.6379 13.237 13.4681 13.077 13.4581 12.837C13.4581 12.597 13.6279 12.417 13.9075 12.407C14.7064 12.407 15.4954 12.407 16.2943 12.407C16.5739 12.407 16.7437 12.607 16.7337 12.847C16.7237 13.077 16.5539 13.237 16.2843 13.237C15.8848 13.237 15.4854 13.237 15.0859 13.237H15.0959Z" fill="#F15A24"/>
<path d="M6.29776 20.287C6.64729 20.357 6.86699 20.567 6.89695 20.847C6.9369 21.187 6.71719 21.487 6.29776 21.677V20.287Z" fill="#F15A24"/>
<path d="M5.42896 18.047V19.027C5.21924 18.957 5.04947 18.867 5.0295 18.647C5.00952 18.387 5.13935 18.197 5.42896 18.057V18.047Z" fill="#F15A24"/>
<path d="M17.4627 26.897C15.8449 26.897 14.5267 25.597 14.5167 23.977C14.5067 22.337 15.8049 21.017 17.4427 21.007C19.0705 21.007 20.4087 22.327 20.3987 23.947C20.3987 25.567 19.0805 26.877 17.4627 26.887V26.897ZM15.3456 23.947C15.3456 25.117 16.2643 26.057 17.4328 26.067C18.6012 26.077 19.5699 25.117 19.5599 23.957C19.5599 22.797 18.6112 21.857 17.4527 21.857C16.2843 21.857 15.3456 22.787 15.3456 23.957V23.947Z" fill="#F15A24"/>
</svg>
