<svg width="31" height="31" viewBox="0 0 31 31" fill="none" xmlns="http://www.w3.org/2000/svg">
<path d="M15.5112 0.701294C7.24236 0.701294 0.531433 7.42129 0.531433 15.7013C0.531433 23.9813 7.24236 30.7013 15.5112 30.7013C23.78 30.7013 30.4909 23.9813 30.4909 15.7013C30.4909 7.42129 23.78 0.701294 15.5112 0.701294ZM20.7741 16.5213C20.0551 17.2413 18.8966 17.2413 18.1876 16.5213L17.3487 15.6813V20.1513C17.3487 21.1613 16.5298 21.9913 15.5212 21.9913C14.5125 21.9913 13.6936 21.1713 13.6936 20.1513V15.6813L12.8548 16.5213C12.1358 17.2413 10.9773 17.2413 10.2683 16.5213C9.54925 15.8013 9.54925 14.6413 10.2683 13.9213L14.2429 9.94129C14.9619 9.22129 16.1204 9.22129 16.8394 9.94129L20.814 13.9213C21.5331 14.6413 21.5331 15.8013 20.814 16.5213H20.7741Z" fill="white"/>
</svg>
