<svg width="187" height="101" viewBox="0 0 187 101" fill="none" xmlns="http://www.w3.org/2000/svg">
<path d="M1.41798 0.0193176C28.9807 0.189318 56.5435 0.329312 84.1062 0.529312C112.198 0.729312 140.29 1.11932 168.382 1.09932C175.143 1.09932 180.007 4.19932 184.511 8.29932C187.247 10.7893 187.127 22.8993 185.23 26.1593C180.626 34.0593 178.109 42.8693 174.644 51.2693C169.211 64.4393 164.218 77.8093 158.406 90.8093C155.52 97.2693 150.097 100.919 142.268 100.839C96.6193 100.339 50.971 100.039 5.31271 99.6593C3.73484 99.6493 2.15697 99.5293 0.579102 99.4593C0.858724 66.3093 1.12836 33.1693 1.40798 0.0193176H1.41798Z" fill="#FBB03B"/>
</svg>
