<svg width="19" height="19" viewBox="0 0 19 19" fill="none" xmlns="http://www.w3.org/2000/svg">
<path d="M0.763367 18.0729L2.02338 13.3729C1.31338 12.0829 0.93335 10.6429 0.93335 9.18294C0.93335 4.39294 4.8234 0.50293 9.6134 0.50293C14.4034 0.50293 18.2934 4.39294 18.2934 9.18294C18.2934 13.9729 14.4034 17.8629 9.6134 17.8629C8.1734 17.8629 6.7534 17.5029 5.4834 16.8129L0.753357 18.0829L0.763367 18.0729ZM5.72339 15.0429L6.02338 15.2229C7.11338 15.8729 8.3634 16.2229 9.6134 16.2229C13.4934 16.2229 16.6534 13.0629 16.6534 9.18294C16.6534 5.30294 13.4934 2.14294 9.6134 2.14294C5.7334 2.14294 2.57336 5.30294 2.57336 9.18294C2.57336 10.4629 2.93339 11.7229 3.60339 12.8329L3.78339 13.1329L3.08337 15.7529L5.72339 15.0429Z" fill="#999999"/>
<path fill-rule="evenodd" clip-rule="evenodd" d="M12.8434 10.393C12.4834 10.183 12.0234 9.94297 11.6034 10.113C11.2834 10.243 11.0734 10.753 10.8634 11.013C10.7534 11.143 10.6234 11.163 10.4634 11.103C9.25336 10.623 8.32336 9.81298 7.65336 8.69298C7.54336 8.52297 7.56334 8.38297 7.69334 8.22297C7.89334 7.98297 8.15335 7.71299 8.20335 7.39299C8.25335 7.07299 8.10337 6.69298 7.97337 6.41298C7.80337 6.05298 7.61334 5.52298 7.25334 5.32298C6.91334 5.13298 6.47338 5.24298 6.17338 5.48298C5.65338 5.90298 5.40337 6.56298 5.41337 7.21298C5.41337 7.40298 5.43338 7.58298 5.48338 7.76298C5.58338 8.19298 5.78335 8.59298 6.01335 8.98298C6.18335 9.27298 6.36334 9.55298 6.56334 9.82298C7.21334 10.703 8.02335 11.473 8.95335 12.043C9.42335 12.333 9.92334 12.583 10.4433 12.753C11.0233 12.943 11.5434 13.143 12.1734 13.023C12.8334 12.893 13.4833 12.493 13.7433 11.853C13.8233 11.663 13.8633 11.453 13.8133 11.253C13.7233 10.843 13.1634 10.593 12.8334 10.403L12.8434 10.393Z" fill="#999999"/>
</svg>
