<svg width="188" height="76" viewBox="0 0 188 76" fill="none" xmlns="http://www.w3.org/2000/svg">
<path d="M36.75 24.4729C42.1824 11.9929 54.4257 3.97292 68.2703 3.97292C82.1149 3.97292 94.4493 12.0429 99.8412 24.5929H103.855C103.804 24.4629 103.764 24.3329 103.713 24.2029C97.9764 9.69293 84.0608 0.312927 68.2703 0.312927C52.4797 0.312927 38.625 9.65294 32.8581 24.1129C32.8074 24.2329 32.777 24.3529 32.7264 24.4729H36.75Z" fill="#ED8700"/>
<path d="M99.0304 52.8329C93.2635 64.3329 81.3648 71.7029 68.2703 71.7029C58.1554 71.7029 49.054 67.3629 42.7703 60.4729C41.7365 61.2429 40.5709 61.8029 39.3243 62.1329C46.3074 70.2229 56.6858 75.3629 68.2804 75.3629C83.3513 75.3629 97.0236 66.5629 103.095 52.9529C103.115 52.9129 103.135 52.8629 103.145 52.8229H99.0304V52.8329Z" fill="#ED8700"/>
<path d="M68.25 26.2629C75.3649 26.2629 81.1216 31.4229 81.1216 38.5429C81.1216 45.6629 75.3649 50.9129 68.25 50.9129C61.1351 50.9129 55.4291 45.7029 55.4291 38.5429C55.4291 31.3829 61.1351 26.2629 68.25 26.2629ZM68.25 47.0129C72.7703 47.0129 76.4493 43.4829 76.4493 38.5429C76.4493 33.6029 72.7703 30.1629 68.25 30.1629C63.7297 30.1629 60.0912 33.6529 60.0912 38.5429C60.0912 43.4329 63.7703 47.0129 68.25 47.0129Z" fill="white"/>
<path d="M107.696 20.473H112.226V26.943H117.932V30.573H112.226V41.363C112.226 46.063 115.53 46.663 117.274 46.663C117.932 46.663 118.358 46.573 118.358 46.573V50.573C118.358 50.573 117.75 50.663 116.757 50.663C113.747 50.663 107.706 49.733 107.706 41.873V20.473H107.696Z" fill="white"/>
<path d="M104.828 26.9429H100.236V37.9629C100.236 42.6129 97.3581 46.8429 92.4628 46.8429C88.6926 46.8429 88.0439 44.2429 88.0439 40.9829V26.9329H83.4527V42.0029C83.4527 48.2329 86.1892 51.0329 91.5608 51.0329C96.1419 51.0329 99.152 48.1429 100.236 45.8429V50.4829H104.828V26.9429Z" fill="white"/>
<path d="M50.5338 26.8229L43.8142 44.4829L36.4561 26.8229H31.4595L41.6858 50.2629L40.6013 52.8229C39.7095 54.9129 38.2399 56.2129 36.4054 56.2129C34.3784 56.2129 32.9189 54.5829 32.9189 54.5429L31.0338 57.8029C31.0338 57.8029 33.1115 60.1329 36.6486 60.1329C39.9932 60.1329 42.8716 58.2229 44.3311 54.5929L55.4899 26.8229H50.5338Z" fill="white"/>
<path d="M20.0473 26.2629C17.7365 26.2629 11.7973 26.8229 11.7973 30.6829V33.0129H16.0946V31.6629C16.0946 30.1329 18.8716 29.8429 20.0067 29.8429C23.7263 29.8429 25.2871 31.3329 25.2871 35.4729V35.7129H24.2534C20.25 35.7129 9.87161 36.1729 9.87161 43.7629C9.87161 48.4629 13.875 50.9229 17.9797 50.9229C23.1993 50.9229 25.2162 47.0329 25.5203 46.3729V50.4029H29.8581V35.4729C29.8581 30.2629 27.7804 26.2629 20.0473 26.2629ZM25.3277 39.8029C25.3277 43.2929 22.8243 47.2929 18.9628 47.2929C15.9426 47.2929 14.4831 45.4329 14.4831 43.5229C14.4831 39.1929 20.7061 39.0129 24.152 39.0129H25.3277V39.8029Z" fill="white"/>
<path d="M5.61486 46.5029C4.95608 46.5029 4.58108 46.1729 4.58108 45.4829V17.5229H0V47.3929C0 49.4829 0.891889 50.3729 3.01013 50.3729H7.54054V46.5129H5.60472L5.61486 46.5029Z" fill="white"/>
<path d="M125.027 46.4729H124.095V45.703H125.027V44.903C125.027 44.023 125.544 43.5829 126.568 43.5829C126.78 43.5829 126.973 43.6129 127.155 43.6629V44.433C127.003 44.373 126.831 44.353 126.639 44.353C126.405 44.353 126.223 44.393 126.111 44.483C126 44.573 125.939 44.723 125.939 44.953V45.6929H127.024V46.463H125.939V51.033H125.017V46.463L125.027 46.4729Z" fill="white"/>
<path d="M132.497 51.0129C132.334 51.1129 132.111 51.1629 131.838 51.1629C131.595 51.1629 131.402 51.0929 131.27 50.9529C131.138 50.8129 131.068 50.6029 131.068 50.3229C130.824 50.6029 130.53 50.8129 130.196 50.9529C129.861 51.0929 129.497 51.1629 129.101 51.1629C128.544 51.1629 128.098 51.0429 127.764 50.7929C127.419 50.5429 127.257 50.1629 127.257 49.6529C127.257 49.1129 127.419 48.7229 127.743 48.5029C128.068 48.2829 128.493 48.1229 129.01 48.0329C129.537 47.9429 130.013 47.8629 130.449 47.7829C130.824 47.6829 131.007 47.4929 131.007 47.2129C131.007 46.8729 130.895 46.6329 130.662 46.5129C130.429 46.3929 130.135 46.3229 129.77 46.3229C129.345 46.3229 129 46.4029 128.757 46.5529C128.513 46.7029 128.382 46.9729 128.382 47.3429H127.459C127.459 46.7329 127.682 46.2829 128.128 45.9929C128.574 45.7029 129.142 45.5629 129.821 45.5629C130.449 45.5629 130.956 45.6629 131.341 45.8729C131.726 46.0729 131.919 46.4629 131.919 47.0429V49.8029C131.919 50.0429 131.929 50.2029 131.959 50.2829C131.99 50.3629 132.071 50.4029 132.203 50.4029C132.284 50.4029 132.385 50.3829 132.486 50.3529V51.0229L132.497 51.0129ZM131.007 48.2729C130.855 48.3729 130.622 48.4529 130.297 48.5029C129.973 48.5529 129.639 48.6029 129.314 48.6529C128.98 48.7029 128.716 48.8029 128.524 48.9429C128.331 49.0829 128.23 49.3029 128.23 49.6029C128.23 49.8829 128.331 50.0829 128.534 50.2029C128.736 50.3229 129 50.3929 129.314 50.3929C129.861 50.3929 130.277 50.2629 130.581 50.0029C130.875 49.7429 131.017 49.4629 131.017 49.1729V48.2729H131.007Z" fill="white"/>
<path d="M134.017 43.6629H133.105V51.0429H134.017V43.6629Z" fill="white"/>
<path d="M140.098 51.0129C139.936 51.1129 139.713 51.1629 139.439 51.1629C139.196 51.1629 139.003 51.0929 138.872 50.9529C138.74 50.8129 138.669 50.6029 138.669 50.3229C138.426 50.6029 138.132 50.8129 137.797 50.9529C137.453 51.0929 137.098 51.1629 136.703 51.1629C136.145 51.1629 135.699 51.0429 135.365 50.7929C135.03 50.5429 134.858 50.1629 134.858 49.6529C134.858 49.1129 135.02 48.7229 135.345 48.5029C135.669 48.2829 136.095 48.1229 136.611 48.0329C137.138 47.9429 137.615 47.8629 138.051 47.7829C138.426 47.6829 138.608 47.4929 138.608 47.2129C138.608 46.8729 138.497 46.6329 138.264 46.5129C138.03 46.3929 137.736 46.3229 137.372 46.3229C136.946 46.3229 136.601 46.4029 136.358 46.5529C136.115 46.7029 135.993 46.9729 135.993 47.3429H135.071C135.071 46.7329 135.294 46.2829 135.74 45.9929C136.186 45.7029 136.753 45.5629 137.432 45.5629C138.061 45.5629 138.568 45.6629 138.953 45.8729C139.338 46.0729 139.53 46.4629 139.53 47.0429V49.8029C139.53 50.0429 139.551 50.2029 139.571 50.2829C139.601 50.3629 139.682 50.4029 139.824 50.4029C139.916 50.4029 140.007 50.3829 140.108 50.3529V51.0229L140.098 51.0129ZM138.608 48.2729C138.456 48.3729 138.213 48.4529 137.888 48.5029C137.564 48.5529 137.24 48.6029 136.905 48.6529C136.571 48.7029 136.307 48.8029 136.115 48.9429C135.922 49.0829 135.821 49.3029 135.821 49.6029C135.821 49.8829 135.922 50.0829 136.125 50.2029C136.328 50.3229 136.591 50.3929 136.905 50.3929C137.453 50.3929 137.878 50.2629 138.172 50.0029C138.466 49.7429 138.618 49.4629 138.618 49.1729V48.2729H138.608Z" fill="white"/>
<path d="M147.162 47.4129C147.01 46.7029 146.554 46.3529 145.774 46.3529C145.166 46.3529 144.72 46.5529 144.446 46.9429C144.172 47.3329 144.03 47.8329 144.03 48.4429C144.03 48.9929 144.162 49.4529 144.436 49.8329C144.699 50.2129 145.115 50.4029 145.662 50.4029C146.098 50.4029 146.453 50.2929 146.706 50.0629C146.97 49.8329 147.132 49.5129 147.193 49.0829H148.135C148.024 49.7529 147.77 50.2629 147.345 50.6229C146.929 50.9829 146.372 51.1629 145.672 51.1629C144.841 51.1629 144.203 50.9129 143.747 50.4129C143.291 49.9129 143.068 49.2529 143.068 48.4329C143.068 47.6129 143.291 46.8929 143.747 46.3629C144.193 45.8329 144.851 45.5629 145.703 45.5629C146.382 45.5629 146.929 45.7129 147.365 46.0229C147.801 46.3229 148.044 46.7829 148.105 47.4029H147.162V47.4129Z" fill="white"/>
<path d="M151.277 45.5729C152.138 45.5729 152.797 45.8329 153.274 46.3629C153.75 46.8929 153.983 47.5629 153.983 48.3829C153.983 49.2029 153.74 49.8629 153.274 50.3929C152.797 50.9129 152.138 51.1829 151.277 51.1829C150.416 51.1829 149.757 50.9229 149.28 50.3929C148.804 49.8629 148.571 49.1929 148.571 48.3829C148.571 47.5729 148.804 46.8929 149.28 46.3729C149.757 45.8429 150.416 45.5829 151.277 45.5829M151.277 50.4129C151.784 50.4129 152.199 50.2329 152.524 49.8829C152.848 49.5229 153.01 49.0329 153.01 48.3929C153.01 47.7529 152.848 47.2729 152.513 46.9029C152.179 46.5429 151.764 46.3629 151.267 46.3629C150.77 46.3629 150.345 46.5429 150.02 46.9029C149.686 47.2529 149.524 47.7529 149.524 48.4029C149.524 49.0529 149.696 49.5229 150.02 49.8829C150.345 50.2429 150.76 50.4229 151.257 50.4229" fill="white"/>
<path d="M155.635 45.6929V46.4629C156.071 45.8629 156.679 45.5629 157.459 45.5629C157.824 45.5629 158.149 45.6329 158.422 45.7829C158.696 45.9229 158.889 46.1529 158.99 46.4729C159.182 46.1829 159.436 45.9629 159.73 45.8029C160.034 45.6429 160.368 45.5629 160.733 45.5629C161.321 45.5629 161.777 45.6829 162.101 45.9329C162.426 46.1729 162.588 46.5729 162.588 47.1129V51.0329H161.666V47.5329C161.666 47.1529 161.595 46.8629 161.443 46.6529C161.291 46.4429 161.007 46.3429 160.591 46.3429C160.155 46.3429 159.801 46.4629 159.537 46.7129C159.274 46.9629 159.142 47.2929 159.142 47.7029V51.0329H158.22V47.5329C158.22 47.1529 158.139 46.8629 157.986 46.6529C157.834 46.4429 157.561 46.3429 157.166 46.3429C156.689 46.3429 156.314 46.5029 156.061 46.8129C155.807 47.1229 155.676 47.4229 155.676 47.7029V51.0329H154.764V45.6929H155.635Z" fill="white"/>
<path d="M168.902 51.0329H167.929L165.861 45.6929H166.885L168.456 50.1429L169.986 45.6929H170.949L168.902 51.0329Z" fill="white"/>
<path d="M173.909 45.5729C174.77 45.5729 175.429 45.8329 175.905 46.3629C176.382 46.8929 176.615 47.5629 176.615 48.3829C176.615 49.2029 176.372 49.8629 175.905 50.3929C175.429 50.9129 174.77 51.1829 173.909 51.1829C173.047 51.1829 172.388 50.9229 171.912 50.3929C171.436 49.8629 171.203 49.1929 171.203 48.3829C171.203 47.5729 171.436 46.8929 171.912 46.3729C172.388 45.8429 173.047 45.5829 173.909 45.5829M173.909 50.4129C174.416 50.4129 174.831 50.2329 175.155 49.8829C175.48 49.5229 175.642 49.0329 175.642 48.3929C175.642 47.7529 175.47 47.2729 175.145 46.9029C174.811 46.5429 174.395 46.3629 173.899 46.3629C173.402 46.3629 172.976 46.5429 172.652 46.9029C172.328 47.2529 172.155 47.7529 172.155 48.4029C172.155 49.0529 172.328 49.5229 172.652 49.8829C172.986 50.2429 173.392 50.4229 173.888 50.4229" fill="white"/>
<path d="M181.196 47.4129C181.044 46.7029 180.588 46.3529 179.818 46.3529C179.209 46.3529 178.764 46.5529 178.49 46.9429C178.216 47.3329 178.074 47.8329 178.074 48.4429C178.074 48.9929 178.206 49.4529 178.48 49.8329C178.753 50.2129 179.159 50.4029 179.706 50.4029C180.142 50.4029 180.486 50.2929 180.75 50.0629C181.003 49.8329 181.176 49.5129 181.236 49.0829H182.169C182.057 49.7529 181.804 50.2629 181.389 50.6229C180.973 50.9829 180.416 51.1629 179.716 51.1629C178.885 51.1629 178.247 50.9129 177.791 50.4129C177.334 49.9129 177.101 49.2529 177.101 48.4329C177.101 47.6129 177.324 46.8929 177.78 46.3629C178.226 45.8329 178.885 45.5629 179.736 45.5629C180.416 45.5629 180.963 45.7129 181.399 46.0229C181.834 46.3229 182.078 46.7829 182.149 47.4029H181.196V47.4129Z" fill="white"/>
<path d="M187.672 49.343C187.551 49.933 187.287 50.383 186.872 50.703C186.456 51.013 185.929 51.173 185.291 51.173C184.419 51.173 183.76 50.923 183.304 50.403C182.848 49.893 182.615 49.213 182.615 48.353C182.615 47.543 182.858 46.883 183.345 46.353C183.831 45.823 184.459 45.563 185.23 45.563C186.122 45.563 186.76 45.873 187.155 46.503C187.551 47.123 187.753 47.833 187.753 48.623H183.578C183.578 49.133 183.72 49.553 184.013 49.883C184.297 50.223 184.743 50.383 185.331 50.383C186.132 50.383 186.618 50.033 186.791 49.323H187.672V49.343ZM184.622 43.483H185.625L186.75 44.963H185.848L185.098 43.963L184.338 44.953H183.507L184.622 43.473V43.483ZM186.791 47.853C186.791 47.443 186.638 47.083 186.324 46.783C186.01 46.483 185.635 46.343 185.179 46.343C184.723 46.343 184.328 46.493 184.034 46.783C183.74 47.073 183.588 47.433 183.588 47.853H186.791Z" fill="white"/>
</svg>
