<svg width="20" height="30" viewBox="0 0 20 30" fill="none" xmlns="http://www.w3.org/2000/svg">
<path d="M2.6574 24.2769C4.0274 25.3369 5.5874 26.0369 7.3074 26.3769V27.7869C7.3074 28.6669 8.0274 29.3869 8.9174 29.3869H10.9074C11.7974 29.3869 12.5174 28.6669 12.5174 27.7869V26.3769C14.0074 26.1069 15.3174 25.5969 16.4374 24.8669C18.4374 23.5469 19.4774 21.6969 19.5174 19.3769C19.5474 17.9069 19.1274 16.6369 18.2774 15.6069C17.0174 14.0969 15.0774 13.1169 12.5174 12.6869V10.2969C12.6874 10.4169 12.8574 10.5469 13.0174 10.6869C13.3774 10.9869 13.8074 11.1369 14.2774 11.1469C14.6674 11.1569 15.1074 10.9369 15.1774 10.8969C15.1974 10.8969 15.2174 10.8769 15.2474 10.8669L17.4774 9.46695C18.0574 9.10695 18.1774 8.62695 18.1874 8.29695C18.1874 7.91695 18.0374 7.56695 17.7474 7.29695C16.3774 5.74695 14.6274 4.73695 12.5274 4.28695V2.60695C12.5274 1.71695 11.8074 0.996948 10.9174 0.996948H8.9274C8.0374 0.996948 7.3174 1.71695 7.3174 2.60695V4.21695C6.4174 4.37695 5.5774 4.62695 4.8374 4.96695C1.9474 6.25695 0.527402 8.25695 0.567402 10.8969C0.587402 12.1969 0.987402 13.3569 1.7474 14.3569C2.9174 15.9269 4.7874 16.9569 7.2974 17.4269V20.8769C6.5074 20.4769 5.7474 19.8869 5.0174 19.0969C4.6974 18.6969 4.2574 18.4869 3.7374 18.4869C3.4574 18.4869 3.0774 18.6369 2.9374 18.7069C2.9274 18.7069 2.9174 18.7169 2.9074 18.7269C2.9074 18.7269 2.8874 18.7369 2.8774 18.7369L0.847402 19.9269C0.207402 20.2969 0.0874023 20.8069 0.0874023 21.1769C0.0874023 21.5069 0.207402 21.8069 0.437402 22.0669C0.997402 22.8369 1.7374 23.5769 2.6474 24.2769H2.6574ZM1.3874 20.8269L3.3874 19.6569C3.5174 19.6069 3.6974 19.5469 3.7474 19.5369C3.9574 19.5369 4.0874 19.6069 4.2174 19.7669C4.2174 19.7769 4.2374 19.7869 4.2474 19.8069C5.2974 20.9469 6.4474 21.7469 7.6474 22.1669C7.8074 22.2269 7.9874 22.1969 8.1274 22.0969C8.2674 21.9969 8.3474 21.8369 8.3474 21.6669V16.9969C8.3474 16.7369 8.1574 16.5169 7.9074 16.4769C5.4474 16.0969 3.6574 15.1769 2.5874 13.7369C1.9574 12.9069 1.6374 11.9669 1.6174 10.8769C1.5774 8.65695 2.7674 7.03695 5.2574 5.89695C6.0374 5.53695 6.9274 5.29695 7.8974 5.15695C8.1574 5.11695 8.3474 4.89695 8.3474 4.63695V2.59695C8.3474 2.28695 8.5974 2.03695 8.9074 2.03695H10.8974C11.2074 2.03695 11.4574 2.28695 11.4574 2.59695V4.70695C11.4574 4.95695 11.6374 5.17695 11.8874 5.21695C13.9474 5.57695 15.6574 6.50695 16.9574 7.98695C16.9674 7.99695 16.9874 8.01695 16.9974 8.02695C17.1074 8.12695 17.1174 8.20695 17.1174 8.26695C17.1174 8.31695 17.1174 8.43695 16.8974 8.56695L14.6974 9.94695C14.5774 10.0069 14.3674 10.0869 14.2674 10.0869C14.0374 10.0869 13.8374 10.0169 13.6774 9.87695C13.2174 9.47695 12.7174 9.14695 12.2074 8.90695C12.0474 8.82695 11.8574 8.84695 11.7074 8.93695C11.5574 9.03695 11.4674 9.19695 11.4674 9.37695V13.1169C11.4674 13.3769 11.6574 13.5969 11.9174 13.6369C14.4374 13.9869 16.3074 14.8769 17.4674 16.2669C18.1674 17.1069 18.4974 18.1169 18.4674 19.3469C18.4274 21.3369 17.5774 22.8569 15.8574 23.9869C14.7574 24.7069 13.4274 25.1869 11.9074 25.4169C11.6474 25.4569 11.4674 25.6769 11.4674 25.9369V27.7869C11.4674 28.0969 11.2174 28.3469 10.9074 28.3469H8.9174C8.6074 28.3469 8.3574 28.0969 8.3574 27.7869V25.9369C8.3574 25.6769 8.1674 25.4669 7.9174 25.4269C6.2074 25.1569 4.6474 24.4869 3.2974 23.4469C2.4574 22.8069 1.7774 22.1369 1.2774 21.4369C1.2674 21.4169 1.2574 21.4069 1.2374 21.3969C1.1474 21.2969 1.1374 21.2169 1.1374 21.1569C1.1374 21.0869 1.1374 20.9669 1.3874 20.8169V20.8269Z" fill="#F15A24"/>
<path d="M8.3474 9.27695C8.3474 9.10695 8.2574 8.94695 8.1174 8.84695C7.9774 8.74695 7.7974 8.72695 7.6374 8.78695L7.4874 8.84695C7.4874 8.84695 7.4674 8.84695 7.4474 8.86695C6.2374 9.44695 5.9874 10.2969 5.9874 10.9069C5.9874 11.6169 6.2874 12.5669 7.6374 13.0869C7.6974 13.1069 7.7574 13.1169 7.8274 13.1169C7.9274 13.1169 8.0374 13.0869 8.1274 13.0269C8.2674 12.9269 8.3574 12.7669 8.3574 12.5969V9.27695H8.3474ZM7.3074 11.6569C7.0874 11.4069 7.0374 11.1269 7.0374 10.8969C7.0374 10.7069 7.0774 10.4669 7.3074 10.2169V11.6569Z" fill="#F15A24"/>
<path d="M11.6974 22.0269C11.7874 22.0769 11.8774 22.1069 11.9774 22.1069C12.0474 22.1069 12.1274 22.0869 12.1974 22.0569C12.3474 21.9869 12.5274 21.9069 12.6874 21.7969C13.6074 21.2369 14.0974 20.3969 14.1074 19.3669C14.1074 18.5669 13.7774 17.4969 12.1374 16.9769C11.9774 16.9269 11.8074 16.9569 11.6774 17.0569C11.5474 17.1569 11.4674 17.3069 11.4674 17.4769V21.5769C11.4674 21.7569 11.5574 21.9169 11.7074 22.0169L11.6974 22.0269ZM12.4974 18.2869C12.9874 18.6169 13.0674 19.0169 13.0674 19.3569C13.0674 19.8869 12.8774 20.3069 12.4974 20.6469V18.2869Z" fill="#F15A24"/>
</svg>
