<svg width="31" height="31" viewBox="0 0 31 31" fill="none" xmlns="http://www.w3.org/2000/svg">
<path d="M15.5517 0.701294C7.28283 0.701294 0.571899 7.42129 0.571899 15.7013C0.571899 23.9813 7.28283 30.7013 15.5517 30.7013C23.8205 30.7013 30.5314 23.9813 30.5314 15.7013C30.5314 7.42129 23.8205 0.701294 15.5517 0.701294ZM16.9098 23.9513C16.4804 24.3413 15.8912 24.5413 15.1422 24.5413C14.3932 24.5413 13.7641 24.3513 13.3247 23.9613C12.8853 23.5713 12.6656 23.0213 12.6656 22.3013C12.6656 21.5813 12.8753 21.0313 13.2947 20.6413C13.7141 20.2513 14.3233 20.0513 15.1322 20.0513C15.9411 20.0513 16.5104 20.2513 16.9298 20.6413C17.3492 21.0313 17.5589 21.5913 17.5589 22.3013C17.5589 23.0113 17.3392 23.5613 16.9098 23.9513ZM20.7247 13.6013C20.2853 14.2913 19.5762 14.9513 18.6175 15.5613C17.7986 16.0913 17.2893 16.4813 17.0796 16.7313C16.8699 16.9813 16.77 17.2713 16.77 17.6013V18.2013H13.1749V17.1913C13.1749 16.4213 13.3347 15.7813 13.6442 15.2513C13.9538 14.7213 14.5131 14.2113 15.302 13.7113C15.9311 13.3113 16.3905 12.9513 16.6602 12.6313C16.9398 12.3113 17.0796 11.9413 17.0796 11.5313C17.0796 11.2013 16.9298 10.9413 16.6302 10.7513C16.3306 10.5613 15.9511 10.4613 15.4718 10.4613C14.2934 10.4613 12.9152 10.8813 11.3473 11.7113L9.71954 8.52129C11.6569 7.41129 13.6842 6.86129 15.8013 6.86129C17.539 6.86129 18.9071 7.24129 19.8958 8.01129C20.8845 8.78129 21.3838 9.82129 21.3838 11.1413C21.3838 12.0813 21.1641 12.9013 20.7247 13.5913V13.6013Z" fill="white"/>
</svg>
