<svg width="81" height="81" viewBox="0 0 81 81" fill="none" xmlns="http://www.w3.org/2000/svg">
<path d="M2.45017 78.573C2.47017 79.903 3.56017 80.9629 4.89017 80.9529L78.4702 80.063C79.8002 80.043 80.8602 78.953 80.8502 77.623C80.8302 76.293 79.7402 75.233 78.4102 75.243L4.83017 76.143C3.50017 76.163 2.44017 77.253 2.45017 78.583V78.573Z" fill="#F15A24"/>
<path d="M33.6002 70.733H33.6602L44.7402 70.543C47.0602 70.503 48.8602 68.253 48.8302 65.423L48.4602 23.353C48.4502 21.813 47.8802 20.383 46.9102 19.443C46.1702 18.713 45.2202 18.323 44.2502 18.343L33.1702 18.533C30.8502 18.573 29.0502 20.823 29.0802 23.653L29.4502 65.723C29.4602 67.263 30.0302 68.6829 31.0002 69.6329C31.7302 70.3429 32.6502 70.743 33.6102 70.733H33.6002ZM33.2202 22.043L44.3102 21.853C44.4402 21.873 44.9402 22.383 44.9502 23.383L45.3202 65.4529C45.3302 66.4929 44.8102 67.033 44.6802 67.033L33.6002 67.223C33.4702 67.213 32.9702 66.703 32.9602 65.693L32.5902 23.623C32.5902 22.583 33.1002 22.043 33.2302 22.043H33.2202Z" fill="#F15A24"/>
<path d="M62.7402 70.573H62.8102L73.8902 70.313C76.2402 70.263 78.0002 67.533 77.9702 63.963L77.6002 6.39295C77.5902 4.22295 76.9002 2.26295 75.7702 1.16295C75.0802 0.492953 74.2702 0.152953 73.3802 0.172953L62.3002 0.432953C59.9502 0.482953 58.1902 3.21295 58.2102 6.78295L58.5802 64.353C58.6002 66.523 59.2802 68.473 60.4102 69.573C61.0802 70.223 61.8802 70.563 62.7302 70.563L62.7402 70.573ZM62.5002 3.94295L73.3302 3.69295C73.5702 3.92295 74.0802 4.83295 74.1002 6.42295L74.4702 63.993C74.4802 65.563 73.9702 66.573 73.7002 66.813L62.8802 67.063C62.6402 66.833 62.1202 65.923 62.1102 64.333L61.7402 6.76295C61.7302 5.19295 62.2502 4.18295 62.5102 3.94295H62.5002Z" fill="#F15A24"/>
<path d="M17.8402 33.043C17.1002 32.313 16.1502 31.913 15.1802 31.943L4.10017 32.133C1.77017 32.173 -0.019834 34.413 0.000165961 37.253L0.250166 65.873C0.260166 67.413 0.830166 68.833 1.79017 69.783C2.52017 70.493 3.44017 70.8829 4.40017 70.8829C4.42017 70.8829 4.44017 70.8829 4.46017 70.8829L15.5402 70.693C17.8602 70.653 19.6602 68.403 19.6302 65.573L19.3802 36.943C19.3702 35.403 18.8002 33.973 17.8302 33.033L17.8402 33.043ZM15.4902 67.183L4.41017 67.373C4.28017 67.363 3.78017 66.853 3.77017 65.843L3.52017 37.223C3.52017 36.173 4.04017 35.643 4.16017 35.643L15.2402 35.453C15.3802 35.473 15.8702 35.993 15.8802 36.983L16.1302 65.613C16.1302 66.653 15.6102 67.183 15.4902 67.193V67.183Z" fill="#F15A24"/>
</svg>
