<svg width="78" height="94" viewBox="0 0 78 94" fill="none" xmlns="http://www.w3.org/2000/svg">
<path d="M38.73 0C35.23 0 31.3 2.8 31.3 6.55V16.44C13.49 19.92 0 35.64 0 54.45C0 75.81 17.37 93.18 38.73 93.18C60.09 93.18 77.46 75.81 77.46 54.45C77.46 35.63 63.97 19.92 46.16 16.44V6.55C46.16 2.8 42.24 0 38.73 0ZM35.67 6.55C35.67 5.55 37.33 4.37 38.73 4.37C40.13 4.37 41.79 5.55 41.79 6.55V45.13C41.79 46.13 40.13 47.32 38.73 47.32C37.33 47.32 35.67 46.14 35.67 45.13V6.55ZM38.73 51.69C42.23 51.69 46.16 48.89 46.16 45.14V33.09C55 36.17 61.36 44.59 61.36 54.46C61.36 66.94 51.21 77.09 38.73 77.09C26.25 77.09 16.1 66.94 16.1 54.46C16.1 44.58 22.46 36.17 31.31 33.09V45.14C31.31 48.89 35.23 51.69 38.74 51.69H38.73ZM73.09 54.46C73.09 73.41 57.67 88.82 38.73 88.82C19.79 88.82 4.37 73.4 4.37 54.45C4.37 38.05 15.92 24.31 31.31 20.91V28.5C20.02 31.74 11.74 42.14 11.74 54.45C11.74 69.34 23.85 81.45 38.74 81.45C53.63 81.45 65.74 69.34 65.74 54.45C65.74 42.14 57.45 31.73 46.17 28.5V20.91C61.56 24.31 73.11 38.06 73.11 54.45L73.09 54.46Z" fill="white"/>
</svg>
