<svg width="79" height="87" viewBox="0 0 79 87" fill="none" xmlns="http://www.w3.org/2000/svg">
<path d="M24.82 37.1049C11.13 37.1049 0 48.2349 0 61.9249C0 75.6149 11.13 86.7449 24.82 86.7449C35.64 86.7449 44.86 79.7849 48.25 70.1049C49.93 70.1749 51.46 70.1949 52.71 70.1949C60.33 70.1949 78.06 69.3849 78.06 61.9149C78.06 61.8949 78.06 61.8649 78.06 61.8449C78.06 61.8249 78.06 61.8049 78.06 61.7849V51.8149C78.11 51.5949 78.13 51.3649 78.13 51.1249C78.13 50.9049 78.1 50.6949 78.06 50.4849V42.2849C78.11 42.0649 78.13 41.8349 78.13 41.6049C78.13 41.3849 78.1 41.1649 78.06 40.9549V31.8249C78.11 31.6049 78.13 31.3749 78.13 31.1349C78.13 30.7449 78.05 30.3749 77.93 30.0249C78.01 29.6949 78.06 29.3549 78.06 28.9949C78.06 28.9749 78.06 28.9449 78.06 28.9249C78.06 28.9049 78.06 28.8849 78.06 28.8649V18.8949C78.11 18.6749 78.13 18.4449 78.13 18.2149C78.13 17.9949 78.1 17.7849 78.06 17.5749V8.44488C78.11 8.22488 78.13 7.99488 78.13 7.76488C78.13 7.35488 78.05 6.97488 77.91 6.61488C77.69 5.84488 77.21 5.20488 76.57 4.80488C71.4 0.404883 54.9 0.254883 52.71 0.254883C50.52 0.254883 34.02 0.404883 28.84 4.79488C28.2 5.19488 27.73 5.83488 27.5 6.60488C27.36 6.96488 27.28 7.35488 27.28 7.75488C27.28 7.99488 27.31 8.21488 27.35 8.43488V17.5649C27.31 17.7749 27.28 17.9849 27.28 18.2049C27.28 18.4449 27.31 18.6649 27.35 18.8849V28.8549C27.35 28.8549 27.35 28.9049 27.35 28.9249C27.35 28.9449 27.35 28.9649 27.35 28.9849C27.35 29.3449 27.4 29.6849 27.48 30.0149C27.36 30.3649 27.28 30.7349 27.28 31.1249C27.28 31.3649 27.31 31.5849 27.35 31.8149V37.2149C26.52 37.1249 25.66 37.0849 24.81 37.0849L24.82 37.1049ZM75.16 61.7149C75.16 61.7749 75.16 61.8449 75.16 61.8949C75.16 61.9149 75.16 61.9449 75.16 61.9749C75.02 64.7549 65 67.0149 52.71 67.0149C51.49 67.0149 50.3 66.9849 49.13 66.9449C49.46 65.3249 49.64 63.6449 49.64 61.9249C49.64 61.4849 49.63 61.0549 49.61 60.6149C50.75 60.6449 51.81 60.6649 52.72 60.6649C58.44 60.6649 69.83 60.2149 75.17 56.8349V61.7149H75.16ZM75.16 52.1849C75.16 52.2449 75.16 52.3049 75.16 52.3649C75.16 52.3849 75.16 52.4149 75.16 52.4449C75.02 55.2249 65 57.4849 52.71 57.4849C51.52 57.4849 50.36 57.4549 49.22 57.4149C48.74 54.7849 47.84 52.2949 46.59 50.0249C48.91 50.1649 51.05 50.2049 52.71 50.2049C58.43 50.2049 69.82 49.7549 75.16 46.3749V52.1849ZM75.16 28.8049C75.16 28.8649 75.16 28.9249 75.16 28.9849C75.16 29.0149 75.16 29.0349 75.16 29.0649C75.02 31.8449 65 34.1049 52.71 34.1049C40.42 34.1049 30.4 31.8449 30.26 29.0649C30.26 29.0149 30.26 28.9549 30.26 28.9049C30.26 28.8749 30.26 28.8349 30.26 28.8049V22.9949C35.6 26.3749 47 26.8249 52.71 26.8249C58.42 26.8249 69.82 26.3749 75.16 22.9949V28.8049ZM52.71 3.91488C65.46 3.91488 73.36 6.28488 74.69 7.75488C73.36 9.23488 65.46 11.5949 52.71 11.5949C39.96 11.5949 32.06 9.22488 30.73 7.75488C32.06 6.27488 39.96 3.91488 52.71 3.91488ZM52.71 15.2649C54.73 15.2649 68.9 15.1349 75.16 11.6749V18.3349C75.16 18.3949 75.16 18.4549 75.16 18.5149C75.16 18.5449 75.16 18.5649 75.16 18.5949C75.02 21.3749 65 23.6349 52.71 23.6349C40.42 23.6349 30.4 21.3749 30.26 18.5949C30.26 18.5349 30.26 18.4849 30.26 18.4349C30.26 18.4049 30.26 18.3649 30.26 18.3249V11.6649C36.52 15.1249 50.7 15.2549 52.71 15.2549V15.2649ZM52.71 38.6449C54.73 38.6449 68.9 38.5149 75.16 35.0549V41.7149C75.16 41.7749 75.16 41.8349 75.16 41.8949C75.16 41.9149 75.16 41.9449 75.16 41.9749C75.02 44.7549 65 47.0149 52.71 47.0149C49.76 47.0149 46.95 46.8849 44.36 46.6449C40.88 42.2049 35.93 38.9749 30.25 37.7049V35.0549C36.51 38.5149 50.69 38.6449 52.71 38.6449ZM46.46 61.9149C46.46 73.8449 36.75 83.5549 24.82 83.5549C12.89 83.5549 3.18 73.8549 3.18 61.9249C3.18 49.9949 12.89 40.2849 24.82 40.2849C36.75 40.2849 46.46 49.9949 46.46 61.9249V61.9149Z" fill="#F15A24"/>
<path d="M8.1 61.9149C8.1 71.1349 15.6 78.6449 24.82 78.6449C34.04 78.6449 41.54 71.1449 41.54 61.9149C41.54 52.6849 34.04 45.1949 24.82 45.1949C15.6 45.1949 8.1 52.6949 8.1 61.9149ZM39.43 61.9149C39.43 69.9649 32.88 76.5249 24.83 76.5249C16.78 76.5249 10.23 69.9749 10.23 61.9149C10.23 53.8549 16.78 47.3149 24.83 47.3149C32.88 47.3149 39.43 53.8649 39.43 61.9149Z" fill="#F15A24"/>
<path d="M22.77 51.3749V53.1649C21.9 53.4949 21.14 53.9949 20.54 54.6349C19.61 55.6249 19.09 56.9449 19.09 58.3449C19.09 59.0849 19.23 59.7849 19.51 60.4249C19.89 61.2949 20.54 62.0649 21.44 62.7049C22.14 63.1949 23 63.6449 24.15 64.0949C25.09 64.4749 25.49 64.7849 25.64 64.9449C25.75 65.0649 25.8 65.1349 25.82 65.1949C25.84 65.2449 25.87 65.3249 25.87 65.4549C25.87 65.6649 25.81 65.7849 25.66 65.9149C25.44 66.0949 25.06 66.2049 24.61 66.2049C23.56 66.2549 22.58 65.8049 22.02 65.4349L21.39 65.0149C21.12 64.8349 20.78 64.7849 20.47 64.8949C20.16 64.9949 19.92 65.2349 19.81 65.5449L18.82 68.3049C18.66 68.7549 18.82 69.2449 19.2 69.5249L19.56 69.7849C20.15 70.1949 20.87 70.5349 21.71 70.7749C22 70.8649 22.3 70.9349 22.6 70.9849V72.5549C22.6 73.1349 23.08 73.6149 23.66 73.6149H26.37C26.95 73.6149 27.43 73.1449 27.43 72.5549V70.6949C28.4 70.3249 29.25 69.7549 29.89 69.0149C30.79 67.9849 31.28 66.6649 31.28 65.2949C31.28 64.5649 31.17 63.8849 30.95 63.2749C30.62 62.3549 30.03 61.5349 29.21 60.8549C28.52 60.2849 27.67 59.8049 26.54 59.3349C26.5 59.3149 26.47 59.3049 26.43 59.2849C25.29 58.8149 24.83 58.5149 24.64 58.3449C24.57 58.2849 24.52 58.2249 24.5 58.1849C24.5 58.1749 24.49 58.1349 24.49 58.0449C24.49 57.9749 24.51 57.8849 24.58 57.8149C24.72 57.6749 25.02 57.6049 25.42 57.5949C25.93 57.5949 26.38 57.6649 26.83 57.8149C27.19 57.9349 27.46 58.0849 27.68 58.2049L28.28 58.5449C28.55 58.6949 28.87 58.7249 29.16 58.6249C29.45 58.5249 29.68 58.2949 29.79 58.0049L30.82 55.2849C31 54.8049 30.82 54.2549 30.37 53.9949L29.94 53.7449C29.23 53.3249 28.44 53.0249 27.59 52.8549V51.3649C27.59 50.7849 27.12 50.3049 26.53 50.3049H23.84C23.26 50.3049 22.78 50.7749 22.78 51.3649L22.77 51.3749ZM24.89 53.9449V52.4349H25.46V53.7749C25.46 54.3249 25.87 54.7749 26.42 54.8249C27.19 54.8949 27.89 55.0949 28.51 55.3949L28.24 56.1149C28.02 56.0149 27.78 55.9049 27.5 55.8149C26.85 55.5949 26.15 55.4849 25.42 55.4849C24.44 55.4849 23.66 55.7649 23.1 56.3049C22.63 56.7649 22.37 57.3849 22.37 58.0549C22.37 58.4549 22.44 58.7949 22.59 59.0949C22.73 59.4049 22.94 59.6749 23.24 59.9349C23.71 60.3549 24.47 60.7649 25.68 61.2649C26.63 61.6549 27.32 62.0449 27.86 62.4849C28.39 62.9149 28.76 63.4249 28.96 63.9849C29.1 64.3749 29.17 64.8049 29.17 65.2949C29.17 66.1549 28.87 66.9749 28.3 67.6149C27.77 68.2249 27.02 68.6649 26.13 68.8849C25.66 69.0049 25.32 69.4249 25.32 69.9149V71.4949H24.73V70.0649C24.73 69.5149 24.31 69.0549 23.76 69.0049C23.27 68.9649 22.78 68.8749 22.31 68.7349C21.85 68.6049 21.44 68.4349 21.1 68.2349L21.36 67.4949C22.33 68.0149 23.5 68.3149 24.6 68.3149C25.59 68.3349 26.4 68.0449 27.03 67.5249C27.65 66.9949 27.98 66.2849 27.99 65.4449C27.99 65.0449 27.92 64.6849 27.77 64.3449C27.63 64.0149 27.43 63.7149 27.15 63.4349C26.67 62.9449 25.94 62.5149 24.93 62.1049C23.94 61.7149 23.22 61.3449 22.67 60.9549C22.08 60.5349 21.68 60.0749 21.45 59.5549C21.29 59.1949 21.21 58.7749 21.21 58.3249C21.21 57.4649 21.52 56.6649 22.08 56.0649C22.58 55.5349 23.27 55.1549 24.08 54.9549C24.55 54.8449 24.89 54.4149 24.89 53.9249V53.9449Z" fill="#F15A24"/>
</svg>
