<svg width="83" height="85" viewBox="0 0 83 85" fill="none" xmlns="http://www.w3.org/2000/svg">
<path d="M72.5819 0.162598C69.546 0.162598 67.0794 2.6326 67.0794 5.6626V9.3626C65.6513 8.2526 63.8737 7.5826 61.9363 7.5826C57.4923 7.5826 53.8472 11.0626 53.5676 15.4526H41.9333C41.6537 11.0626 38.0086 7.5826 33.5646 7.5826C30.7884 7.5826 28.3217 8.9526 26.7938 11.0426C25.2659 8.9526 22.7992 7.5826 20.0229 7.5826C18.0856 7.5826 16.298 8.2526 14.8799 9.3626V5.6626C14.8799 2.6226 12.4132 0.162598 9.38731 0.162598C6.3614 0.162598 3.87476 2.6326 3.87476 5.6626V69.1826C1.55789 70.6026 0 73.1626 0 76.0726C0 80.5326 3.6251 84.1626 8.07908 84.1626H74.5193C78.9733 84.1626 82.5984 80.5326 82.5984 76.0726C82.5984 72.8926 80.7509 70.1426 78.0845 68.8226V5.6626C78.0845 2.6226 75.6178 0.162598 72.5919 0.162598H72.5819ZM70.335 34.0926V5.6626C70.335 4.4226 71.3436 3.4126 72.5819 3.4126C73.8202 3.4126 74.8289 4.4226 74.8289 5.6626V67.9926C74.729 67.9926 74.6192 67.9726 74.5193 67.9726H70.335V34.0726V34.0926ZM61.9363 10.8526C64.7725 10.8526 67.0794 13.1626 67.0794 16.0026C67.0794 18.8426 64.7725 21.1526 61.9363 21.1526C59.1001 21.1526 56.7933 18.8426 56.7933 16.0026C56.7933 13.1626 59.1001 10.8526 61.9363 10.8526ZM33.5547 10.8526C36.3908 10.8526 38.6977 13.1626 38.6977 16.0026C38.6977 18.8426 36.3908 21.1526 33.5547 21.1526C30.7185 21.1526 28.4116 18.8426 28.4116 16.0026C28.4116 13.1626 30.7185 10.8526 33.5547 10.8526ZM26.7838 20.9626C28.3117 23.0526 30.7784 24.4226 33.5547 24.4226C37.8189 24.4226 41.3441 21.2226 41.8734 17.1026H53.6175C54.1568 21.2226 57.6721 24.4226 61.9363 24.4226C63.8737 24.4226 65.6613 23.7526 67.0794 22.6426V27.4626C65.6513 26.3526 63.8737 25.6826 61.9363 25.6826C58.7206 25.6826 55.9344 27.5026 54.5163 30.1526C53.1082 27.4926 50.312 25.6826 47.0964 25.6826C42.6424 25.6826 39.0073 29.1626 38.7277 33.5526H14.8699V22.6426C16.288 23.7526 18.0756 24.4226 20.013 24.4226C22.7892 24.4226 25.2559 23.0526 26.7838 20.9626ZM47.1063 62.5326C51.4605 62.5326 55.0556 59.1926 55.465 54.9326H67.0893V67.9926H14.8699V60.7526C16.288 61.8626 18.0756 62.5326 20.013 62.5326C24.3671 62.5326 27.9622 59.1926 28.3717 54.9326H38.7476C39.1571 59.1926 42.7522 62.5326 47.1063 62.5326ZM41.9633 54.1226C41.9633 51.2826 44.2702 48.9726 47.1063 48.9726C49.9425 48.9726 52.2494 51.2826 52.2494 54.1226C52.2494 56.9626 49.9425 59.2726 47.1063 59.2726C44.2702 59.2726 41.9633 56.9626 41.9633 54.1226ZM55.465 53.3126C55.0556 49.0526 51.4605 45.7126 47.1063 45.7126C42.7522 45.7126 39.1571 49.0526 38.7476 53.3126H28.3717C27.9622 49.0526 24.3671 45.7126 20.013 45.7126C18.0756 45.7126 16.288 46.3826 14.8699 47.4926V35.1926H38.7876C39.3269 39.3126 42.8421 42.5126 47.1063 42.5126C50.322 42.5126 53.1082 40.6926 54.5263 38.0426C55.9344 40.7026 58.7306 42.5126 61.9463 42.5126C63.8837 42.5126 65.6713 41.8426 67.0893 40.7326V53.3126H55.465ZM41.9633 34.1026C41.9633 31.2626 44.2702 28.9526 47.1063 28.9526C49.9425 28.9526 52.2494 31.2626 52.2494 34.1026C52.2494 36.9426 49.9425 39.2526 47.1063 39.2526C44.2702 39.2526 41.9633 36.9426 41.9633 34.1026ZM61.9463 39.2526C59.1101 39.2526 56.8032 36.9426 56.8032 34.1026C56.8032 31.2626 59.1101 28.9526 61.9463 28.9526C64.7825 28.9526 67.0893 31.2626 67.0893 34.1026C67.0893 36.9426 64.7825 39.2526 61.9463 39.2526ZM20.013 10.8526C22.8491 10.8526 25.156 13.1626 25.156 16.0026C25.156 18.8426 22.8491 21.1526 20.013 21.1526C17.1768 21.1526 14.8699 18.8426 14.8699 16.0026C14.8699 13.1626 17.1768 10.8526 20.013 10.8526ZM20.013 48.9626C22.8491 48.9626 25.156 51.2726 25.156 54.1126C25.156 56.9526 22.8491 59.2626 20.013 59.2626C17.1768 59.2626 14.8699 56.9526 14.8699 54.1126C14.8699 51.2726 17.1768 48.9626 20.013 48.9626ZM7.12038 5.6626C7.12038 4.4226 8.12902 3.4126 9.36734 3.4126C10.6057 3.4126 11.6143 4.4226 11.6143 5.6626V15.9726C11.6143 15.9726 11.6143 15.9826 11.6143 15.9926V54.0726C11.6143 54.0726 11.6143 54.0826 11.6143 54.0926V67.9626H8.07908C7.75951 67.9626 7.43995 67.9826 7.13036 68.0226V5.6626H7.12038ZM79.3428 76.0726C79.3428 78.7326 77.1757 80.9026 74.5193 80.9026H8.07908C5.42267 80.9026 3.2556 78.7326 3.2556 76.0726C3.2556 73.4126 5.42267 71.2426 8.07908 71.2426H74.5193C77.1757 71.2426 79.3428 73.4126 79.3428 76.0726Z" fill="#F15A24"/>
</svg>
