<svg width="21" height="21" viewBox="0 0 21 21" fill="none" xmlns="http://www.w3.org/2000/svg">
<path d="M10.9543 0.0316162C5.43934 0.0316162 0.967773 4.50923 0.967773 10.0316C0.967773 15.554 5.43934 20.0316 10.9543 20.0316C16.4692 20.0316 20.9408 15.554 20.9408 10.0316C20.9408 4.50923 16.4807 0.0316162 10.9543 0.0316162ZM11.8601 15.531C11.5734 15.7951 11.1721 15.9214 10.6791 15.9214C10.1861 15.9214 9.76186 15.7951 9.47522 15.531C9.18858 15.2785 9.03953 14.8996 9.03953 14.4289C9.03953 13.9581 9.17712 13.5793 9.45229 13.3152C9.72746 13.0511 10.1402 12.9248 10.6791 12.9248C11.218 12.9248 11.5964 13.0511 11.8715 13.3152C12.1467 13.5793 12.2843 13.9467 12.2843 14.4174C12.2843 14.8881 12.1352 15.2555 11.8486 15.5196L11.8601 15.531ZM14.4054 8.63093C14.1073 9.09017 13.6372 9.52645 12.9951 9.93977C12.4448 10.2957 12.1123 10.5483 11.9747 10.7205C11.8371 10.8812 11.7683 11.0764 11.7683 11.306V11.7079H9.37203V11.0305C9.37203 10.5253 9.47522 10.089 9.6816 9.73311C9.88798 9.3772 10.2549 9.04425 10.7938 8.71129C11.218 8.44723 11.5161 8.20613 11.6995 7.98799C11.883 7.76985 11.9747 7.52875 11.9747 7.2532C11.9747 7.03506 11.8715 6.86284 11.6766 6.73655C11.4817 6.61026 11.218 6.54138 10.9084 6.54138C10.1288 6.54138 9.20005 6.81692 8.15668 7.37949L7.06745 5.2555C8.36306 4.52071 9.716 4.14183 11.1263 4.14183C12.2843 4.14183 13.2015 4.39442 13.8551 4.91107C14.5201 5.41623 14.8411 6.11658 14.8411 7.00062C14.8411 7.63208 14.6921 8.17169 14.4054 8.64241V8.63093Z" fill="white"/>
</svg>
