<svg width="21" height="21" viewBox="0 0 21 21" fill="none" xmlns="http://www.w3.org/2000/svg">
<path d="M10.954 0.996948C5.4391 0.996948 0.967529 5.47456 0.967529 10.9969C0.967529 16.5193 5.4391 20.9969 10.954 20.9969C16.469 20.9969 20.9405 16.5193 20.9405 10.9969C20.9405 5.47456 16.4804 0.996948 10.954 0.996948ZM11.8598 16.4964C11.5732 16.7604 11.1719 16.8867 10.6789 16.8867C10.1858 16.8867 9.76162 16.7604 9.47498 16.4964C9.18834 16.2438 9.03929 15.8649 9.03929 15.3942C9.03929 14.9235 9.17687 14.5446 9.45205 14.2805C9.72722 14.0165 10.14 13.8902 10.6789 13.8902C11.2177 13.8902 11.5961 14.0165 11.8713 14.2805C12.1465 14.5446 12.284 14.912 12.284 15.3827C12.284 15.8534 12.135 16.2208 11.8483 16.4849L11.8598 16.4964ZM14.4052 9.59626C14.1071 10.0555 13.637 10.4918 12.9949 10.9051C12.4446 11.261 12.1121 11.5136 11.9745 11.6858C11.8369 11.8465 11.7681 12.0417 11.7681 12.2713V12.6732H9.37179V11.9958C9.37179 11.4906 9.47498 11.0544 9.68136 10.6984C9.88774 10.3425 10.2546 10.0096 10.7935 9.67663C11.2177 9.41256 11.5158 9.17146 11.6993 8.95332C11.8827 8.73518 11.9745 8.49408 11.9745 8.21853C11.9745 8.00039 11.8713 7.82818 11.6764 7.70189C11.4815 7.57559 11.2177 7.50671 10.9082 7.50671C10.1285 7.50671 9.1998 7.78225 8.15644 8.34482L7.06721 6.22083C8.36282 5.48604 9.71575 5.10717 11.126 5.10717C12.284 5.10717 13.2013 5.35975 13.8548 5.8764C14.5198 6.38156 14.8409 7.08191 14.8409 7.96595C14.8409 8.59741 14.6918 9.13702 14.4052 9.60774V9.59626Z" fill="white"/>
</svg>
