<svg width="17" height="16" viewBox="0 0 17 16" fill="none" xmlns="http://www.w3.org/2000/svg">
<path d="M8.78333 0.682922C8.08333 0.682922 6.76333 2.94293 6.60333 7.09293H10.9733C10.8133 2.93293 9.49334 0.682922 8.79333 0.682922H8.78333Z" fill="#999999"/>
<path d="M6.59332 8.75299C6.75332 12.913 8.07338 15.163 8.77338 15.163C9.47338 15.163 10.7934 12.903 10.9534 8.75299H6.58337H6.59332Z" fill="#999999"/>
<path d="M12.6234 7.09294H16.8134C16.4634 3.67294 13.9834 0.882947 10.7134 0.0829468C11.8734 1.53295 12.5234 4.26294 12.6234 7.09294Z" fill="#999999"/>
<path d="M4.94336 7.09294C5.05336 4.26294 5.69333 1.53295 6.85333 0.0829468C3.59333 0.882947 1.10336 3.67294 0.753357 7.09294H4.94336Z" fill="#999999"/>
<path d="M12.6234 8.75299C12.5134 11.583 11.8734 14.313 10.7134 15.763C13.9734 14.963 16.4634 12.173 16.8134 8.75299H12.6234Z" fill="#999999"/>
<path d="M4.94336 8.75294H0.753357C1.10336 12.1729 3.58333 14.9629 6.85333 15.7629C5.69333 14.3129 5.04336 11.5829 4.94336 8.75294Z" fill="#999999"/>
</svg>
