<svg width="22" height="27" viewBox="0 0 22 27" fill="none" xmlns="http://www.w3.org/2000/svg">
<path d="M1.13322 20.279V24.149C1.13322 25.249 2.03322 26.149 3.13322 26.149H3.80322C4.90322 26.149 5.80322 25.249 5.80322 24.149V20.279C6.43322 20.039 6.88322 19.429 6.88322 18.719V18.209C6.88322 17.499 6.43322 16.889 5.80322 16.649V2.06897C5.80322 0.96897 4.90322 0.0689697 3.80322 0.0689697H3.13322C2.03322 0.0689697 1.13322 0.96897 1.13322 2.06897V16.649C0.503223 16.889 0.0532227 17.499 0.0532227 18.209V18.719C0.0532227 19.429 0.503223 20.039 1.13322 20.279ZM3.13322 1.33897H3.80322C4.20322 1.33897 4.53322 1.66897 4.53322 2.06897V16.539H2.40322V2.06897C2.40322 1.66897 2.73322 1.33897 3.13322 1.33897ZM1.32322 18.209C1.32322 17.989 1.50322 17.809 1.72322 17.809H5.21322C5.43322 17.809 5.61322 17.989 5.61322 18.209V18.719C5.61322 18.939 5.43322 19.119 5.21322 19.119H1.72322C1.50322 19.119 1.32322 18.939 1.32322 18.719V18.209ZM3.80322 24.879H3.13322C2.73322 24.879 2.40322 24.549 2.40322 24.149V20.389H4.53322V24.149C4.53322 24.549 4.20322 24.879 3.80322 24.879Z" fill="#F15A24"/>
<path d="M8.34322 14.539V24.149C8.34322 25.249 9.24322 26.149 10.3432 26.149H11.0132C12.1132 26.149 13.0132 25.249 13.0132 24.149V14.489C13.6032 14.229 14.0232 13.639 14.0232 12.959V12.449C14.0232 11.759 13.6032 11.169 13.0132 10.919V2.06897C13.0132 0.96897 12.1132 0.0689697 11.0132 0.0689697H10.3432C9.24322 0.0689697 8.34322 0.96897 8.34322 2.06897V10.869C7.68322 11.089 7.19322 11.719 7.19322 12.449V12.959C7.19322 13.699 7.67322 14.319 8.34322 14.539ZM10.3432 1.33897H11.0132C11.4132 1.33897 11.7432 1.66897 11.7432 2.06897V10.779H9.61322V2.06897C9.61322 1.66897 9.94322 1.33897 10.3432 1.33897ZM8.47322 12.449C8.47322 12.229 8.65322 12.049 8.87322 12.049H12.3632C12.5832 12.049 12.7632 12.229 12.7632 12.449V12.959C12.7632 13.179 12.5832 13.359 12.3632 13.359H8.87322C8.65322 13.359 8.47322 13.179 8.47322 12.959V12.449ZM11.0232 24.879H10.3532C9.95322 24.879 9.62322 24.549 9.62322 24.149V14.629H11.7532V24.149C11.7532 24.549 11.4232 24.879 11.0232 24.879Z" fill="#F15A24"/>
<path d="M15.8032 8.88897V24.149C15.8032 25.249 16.7032 26.149 17.8032 26.149H18.4732C19.5732 26.149 20.4732 25.249 20.4732 24.149V8.88897C21.1032 8.64897 21.5532 8.03897 21.5532 7.32897V6.81897C21.5532 6.10897 21.1032 5.49897 20.4732 5.25897V2.06897C20.4732 0.96897 19.5732 0.0689697 18.4732 0.0689697H17.8032C16.7032 0.0689697 15.8032 0.96897 15.8032 2.06897V5.25897C15.1732 5.49897 14.7232 6.10897 14.7232 6.81897V7.32897C14.7232 8.03897 15.1732 8.64897 15.8032 8.88897ZM17.8032 1.33897H18.4732C18.8732 1.33897 19.2032 1.66897 19.2032 2.06897V5.14897H17.0732V2.06897C17.0732 1.66897 17.4032 1.33897 17.8032 1.33897ZM15.9932 6.81897C15.9932 6.59897 16.1732 6.41897 16.3932 6.41897H19.8832C20.1032 6.41897 20.2832 6.59897 20.2832 6.81897V7.32897C20.2832 7.54897 20.1032 7.72897 19.8832 7.72897H16.3932C16.1732 7.72897 15.9932 7.54897 15.9932 7.32897V6.81897ZM18.4732 24.879H17.8032C17.4032 24.879 17.0732 24.549 17.0732 24.149V8.99897H19.2032V24.149C19.2032 24.549 18.8732 24.879 18.4732 24.879Z" fill="#F15A24"/>
</svg>
