<svg width="28" height="22" viewBox="0 0 28 22" fill="none" xmlns="http://www.w3.org/2000/svg">
<path d="M11.2585 6.72165C11.2585 8.87165 10.7791 10.5316 9.81046 11.7116C8.84177 12.8916 7.47361 13.4816 5.68603 13.4816C4.0083 13.4816 2.68009 12.8716 1.70141 11.6616C0.722737 10.4416 0.233398 8.80165 0.233398 6.73165C0.233398 4.66165 0.712751 2.92165 1.67146 1.77165C2.63016 0.621647 3.96835 0.0316467 5.68603 0.0316467C7.40371 0.0316467 8.75189 0.631647 9.75054 1.83165C10.7492 3.03165 11.2585 4.66165 11.2585 6.72165ZM4.62746 6.78165C4.62746 7.90165 4.71734 8.71165 4.90708 9.21165C5.09683 9.71165 5.36646 9.96165 5.73596 9.96165C6.10546 9.96165 6.38509 9.72165 6.56484 9.23165C6.7446 8.74165 6.83448 7.93165 6.83448 6.78165C6.83448 5.63165 6.7446 4.85165 6.56484 4.35165C6.38509 3.85165 6.10546 3.60165 5.73596 3.60165C5.36646 3.60165 5.07685 3.85165 4.8971 4.36165C4.71734 4.87165 4.62746 5.67165 4.62746 6.78165ZM21.9241 0.341647L10.0601 21.7616H5.71599L17.58 0.341647H21.9241ZM27.5265 15.2516C27.5265 17.3916 27.0372 19.0516 26.0685 20.2216C25.0998 21.3916 23.7217 21.9816 21.954 21.9816C20.2763 21.9816 18.9481 21.3716 17.9694 20.1616C16.9908 18.9416 16.5014 17.3116 16.5014 15.2416C16.5014 13.1716 16.9808 11.4416 17.9395 10.2816C18.8982 9.12165 20.2364 8.54165 21.964 8.54165C23.6917 8.54165 25.0299 9.14165 26.0285 10.3416C27.0272 11.5416 27.5365 13.1716 27.5365 15.2316L27.5265 15.2516ZM20.8955 15.3116C20.8955 16.4316 20.9854 17.2416 21.1751 17.7416C21.3648 18.2416 21.6345 18.4916 22.004 18.4916C22.4234 18.4916 22.713 18.2016 22.8728 17.6316C23.0326 17.0616 23.1125 16.2816 23.1125 15.3116C23.1125 14.3416 23.0326 13.5616 22.8728 12.9916C22.713 12.4216 22.4234 12.1316 22.004 12.1316C21.6245 12.1316 21.3449 12.3816 21.1651 12.8916C20.9854 13.4016 20.8955 14.2016 20.8955 15.3116Z" fill="white"/>
</svg>
