<svg width="80" height="51" viewBox="0 0 80 51" fill="none" xmlns="http://www.w3.org/2000/svg">
<path d="M0 0.179993H80V50.18H0V0.179993Z" fill="#39B54A"/>
<path d="M53.1579 3.44086C41.2445 3.44086 31.5789 13.1782 31.5789 25.18C31.5789 37.1818 41.2445 46.9191 53.1579 46.9191C65.0713 46.9191 74.7368 37.1818 74.7368 25.18C74.7368 13.1782 65.0713 3.44086 53.1579 3.44086ZM63.291 27.6619L51.2967 39.7452C50.011 41.0405 47.916 41.0405 46.6303 39.7452C45.3445 38.4499 45.3445 36.3394 46.6303 35.0441L56.4217 25.18L46.6303 15.3159C45.3445 14.0206 45.3445 11.9101 46.6303 10.6148C47.916 9.31949 50.011 9.31949 51.2967 10.6148L63.291 22.6981C63.9654 23.3775 64.289 24.2833 64.2531 25.18C64.289 26.0767 63.9654 26.9735 63.291 27.6619Z" fill="white"/>
</svg>
