<svg width="19" height="30" viewBox="0 0 19 30" fill="none" xmlns="http://www.w3.org/2000/svg">
<path d="M7.6474 5.7707C3.4774 5.7707 0.0874023 9.1707 0.0874023 13.3407C0.0874023 14.3107 0.147402 15.1707 0.447402 16.4207C0.987402 18.6207 2.3174 21.6507 2.7674 22.6407C2.5674 22.9207 2.4574 23.2407 2.4474 23.5807C2.4474 24.0107 2.6074 24.4107 2.8974 24.7207C2.6174 25.0207 2.4474 25.4107 2.4474 25.8207C2.4474 26.3007 2.6574 26.7507 3.0074 27.0607C2.7474 27.3507 2.6074 27.7207 2.5974 28.1207C2.5974 29.0607 3.4174 29.8407 4.4374 29.8607L11.2574 29.9507H11.2874C11.7974 29.9507 12.2874 29.7607 12.6374 29.4207C12.9574 29.1107 13.1374 28.6907 13.1374 28.2607C13.1374 27.7807 12.9274 27.3307 12.5774 27.0207C12.8274 26.7307 12.9774 26.3607 12.9874 25.9607C12.9874 25.5307 12.8274 25.1307 12.5374 24.8207C12.8174 24.5207 12.9874 24.1307 12.9874 23.7207C12.9874 23.2907 12.8274 22.9007 12.5474 22.6007C13.0174 21.5607 14.3074 18.6007 14.8474 16.4307C15.1474 15.1807 15.2074 14.3307 15.2074 13.3507C15.2074 9.1807 11.8174 5.7907 7.6474 5.7907V5.7707ZM11.8974 28.6507C11.7374 28.8007 11.5174 28.8907 11.2774 28.8807L4.4574 28.7907C4.0174 28.7907 3.6574 28.4807 3.6574 28.1207C3.6574 27.8407 3.8774 27.5907 4.2074 27.5007C4.4474 27.4407 4.6074 27.2107 4.5974 26.9607C4.5874 26.7107 4.3974 26.5107 4.1574 26.4607C3.7774 26.4007 3.5074 26.1207 3.5074 25.8007C3.5074 25.5307 3.7174 25.2907 4.0274 25.2007C4.2474 25.1307 4.3974 24.9307 4.3974 24.7007C4.3974 24.4707 4.2474 24.2707 4.0274 24.1907C3.7174 24.0907 3.5074 23.8407 3.5074 23.5607C3.5074 23.4307 3.5574 23.3207 3.6174 23.2407H11.7474C11.8674 23.3607 11.9474 23.5107 11.9374 23.6707C11.9374 23.9407 11.7274 24.1807 11.4174 24.2707C11.1974 24.3407 11.0474 24.5407 11.0474 24.7707C11.0474 25.0007 11.1974 25.2007 11.4174 25.2807C11.7274 25.3807 11.9374 25.6307 11.9374 25.9107C11.9374 26.1907 11.7174 26.4407 11.3874 26.5307C11.1474 26.5907 10.9874 26.8207 10.9974 27.0707C11.0074 27.3207 11.1874 27.5207 11.4374 27.5707C11.8074 27.6307 12.0874 27.9207 12.0874 28.2307C12.0874 28.4207 11.9874 28.5607 11.8974 28.6407V28.6507ZM13.8274 16.1607C13.3074 18.2607 11.9974 21.2507 11.5674 22.2107H3.7374C3.3074 21.2607 1.9974 18.2607 1.4774 16.1707C1.1974 15.0207 1.1474 14.2407 1.1474 13.3407C1.1474 9.7507 4.0674 6.8307 7.6574 6.8307C11.2474 6.8307 14.1674 9.7507 14.1674 13.3407C14.1674 14.2407 14.1074 15.0207 13.8374 16.1707L13.8274 16.1607Z" fill="#F15A24"/>
<path d="M18.0474 5.1807L14.8274 6.9407C14.6974 7.0107 14.6474 7.1807 14.7174 7.3107C14.7474 7.3607 14.7874 7.4007 14.8374 7.4307C14.9174 7.4707 15.0074 7.4707 15.0874 7.4307L18.3074 5.6707C18.4374 5.6007 18.4874 5.4307 18.4174 5.3007C18.3474 5.1707 18.1774 5.1207 18.0474 5.1907V5.1807Z" fill="#F15A24"/>
<path d="M13.2774 6.1507C13.4374 6.1907 13.6074 6.1007 13.6574 5.9307L15.0774 1.4107C15.1274 1.2407 15.0374 1.0607 14.8674 1.0107C14.6974 0.960704 14.5174 1.0507 14.4674 1.2207L13.0374 5.7507C12.9874 5.9207 13.0774 6.1007 13.2474 6.1507H13.2774Z" fill="#F15A24"/>
<path d="M6.6274 8.2307C5.4374 8.2507 3.1574 8.9907 2.9774 11.5907C2.9574 11.9407 3.2174 12.2407 3.5674 12.2607C3.9074 12.2807 4.2174 12.0207 4.2374 11.6707C4.2474 11.5007 4.2774 11.3407 4.3174 11.1907C4.5774 10.1507 5.4274 9.7407 6.0874 9.5807C6.3974 9.5107 6.6274 9.5007 6.6474 9.5007C6.9974 9.5007 7.2674 9.2007 7.2674 8.8507C7.2674 8.5107 6.9774 8.2307 6.6174 8.2307H6.6274Z" fill="#F15A24"/>
</svg>
