<svg width="78" height="85" viewBox="0 0 78 85" fill="none" xmlns="http://www.w3.org/2000/svg">
<path d="M8.98864 84.6481C7.25864 84.2681 5.57864 83.7581 4.15864 82.6481C0.768642 79.9781 -0.641358 76.4781 0.298642 72.2781C1.23864 68.0781 4.00864 65.4981 8.19864 64.5381C8.83864 64.3881 8.97864 64.1781 8.96864 63.5781C8.94864 56.1681 8.95864 48.7581 8.95864 41.3481C8.95864 39.5981 9.60864 39.1581 11.2186 39.8181C14.7286 41.2581 18.2386 42.7181 21.7486 44.1481C22.5786 44.4881 23.1986 44.9781 23.1786 45.9481C23.1586 46.8781 22.5686 47.3481 21.7586 47.6681C18.5486 48.9781 15.3586 50.3181 12.1386 51.6181C11.5986 51.8381 11.4086 52.1081 11.4086 52.6981C11.4386 56.3381 11.4286 59.9681 11.4086 63.6081C11.4086 64.1581 11.4886 64.4481 12.1286 64.5181C12.7486 64.5881 13.3586 64.8081 13.9386 65.0481C14.6186 65.3281 14.8686 65.9881 14.6186 66.6081C14.3686 67.2481 13.7686 67.5581 13.0786 67.3281C11.4486 66.7681 9.81864 66.5981 8.12864 67.0681C4.39864 68.1181 2.00864 71.7381 2.53864 75.5281C3.06864 79.2781 6.28864 82.1181 10.0486 82.1581C13.9186 82.1981 17.1686 79.4181 17.7586 75.5881C18.0286 73.8581 17.6386 72.2681 16.9086 70.7081C16.7186 70.3081 16.7186 69.6481 16.9286 69.2681C17.0886 68.9681 17.7286 68.7581 18.1086 68.8081C18.4586 68.8581 18.8986 69.2481 19.0486 69.5981C19.5586 70.7381 19.9586 71.9381 20.4386 73.1881H32.4986C32.9486 71.3481 33.9386 69.8481 35.5986 68.8481C36.7886 68.1281 38.0886 67.8581 39.4786 67.9481C42.2586 68.1181 44.4286 70.0281 45.3986 73.1981H61.2686C61.9686 70.4881 63.6586 68.7481 66.4286 68.0281V52.4381C62.1086 51.6581 59.2486 49.1781 57.8586 44.9381C57.0586 45.3981 56.2786 45.8081 55.5586 46.2881C55.3686 46.4181 55.2486 46.7781 55.2486 47.0381C55.2186 48.9981 55.2486 50.9481 55.2286 52.9081C55.2286 54.8981 54.1186 56.1081 52.1386 56.1181C44.5886 56.1481 37.0386 56.1481 29.4886 56.1181C27.5586 56.1181 26.4586 54.8981 26.4586 52.9581C26.4586 45.8781 26.4586 38.7981 26.4586 31.7181C26.4586 29.6781 27.5886 28.5381 29.6186 28.5381C37.0886 28.5381 44.5486 28.5381 52.0186 28.5381C54.0786 28.5381 55.2086 29.6981 55.2186 31.7881C55.2186 33.0781 55.2386 34.3781 55.2186 35.6681C55.2086 36.1681 55.3286 36.4781 55.7986 36.7181C56.6486 37.1581 57.4686 37.6681 58.3886 38.1981C60.0486 34.8281 62.7386 32.8181 66.4486 32.2081V16.6281C63.7086 15.9181 61.9786 14.2081 61.2786 11.4581H45.4286C44.0986 15.0481 41.9886 16.7381 38.8686 16.7181C35.8486 16.6981 33.7286 14.9681 32.4486 11.4581H20.3586C20.0686 12.3881 19.8286 13.3181 19.4886 14.2081C19.1286 15.1681 18.4486 15.4981 17.7086 15.1681C17.0186 14.8681 16.8486 14.1881 17.2086 13.2581C18.7486 9.29814 17.2486 5.14814 13.6186 3.32814C10.4086 1.71814 6.58864 2.51814 4.25864 5.27814C2.00864 7.94814 1.87864 11.8781 3.94864 14.6981C6.04864 17.5781 9.78864 18.6481 13.0786 17.3081C13.2786 17.2281 13.4786 17.1181 13.6886 17.0481C14.3786 16.8181 14.9986 17.0681 15.2786 17.6781C15.5586 18.2881 15.3786 19.0181 14.6886 19.2681C13.4786 19.7081 12.2386 20.1881 10.9786 20.2981C5.63864 20.7581 0.978642 16.9881 0.118642 11.5981C-0.691358 6.53814 2.72864 1.52814 7.85864 0.28814C13.4886 -1.08186 19.0486 2.56814 20.1986 8.37814C20.2286 8.53814 20.2586 8.69814 20.2886 8.88814H32.4786C33.5486 5.46814 35.7786 3.51814 39.4986 3.66814C41.6486 3.75814 44.4686 5.19814 45.4186 8.89814H61.3086C61.7686 6.99814 62.7986 5.49814 64.4986 4.49814C65.7786 3.75814 67.1786 3.47814 68.6386 3.68814C71.6986 4.13814 74.0486 6.64814 74.2786 9.62814C74.4786 12.2281 73.0986 15.5481 69.0386 16.6281V32.1081C70.0286 32.4281 71.0486 32.6681 71.9886 33.0881C74.4886 34.2081 76.2186 36.1081 77.2386 38.6481C77.6286 39.6181 77.4286 40.3381 76.7286 40.6381C75.9686 40.9581 75.3686 40.5781 74.9286 39.5681C73.6186 36.4881 71.2886 34.7481 67.9286 34.6681C64.7186 34.5881 62.3586 36.1181 60.8486 38.9481C60.7986 39.0481 60.7586 39.1481 60.7186 39.2481C60.6986 39.2981 60.6986 39.3581 60.6886 39.4681C60.8986 39.5981 61.1286 39.7381 61.3586 39.8881C62.5686 40.6881 62.5586 42.1281 61.3386 42.9481C60.0486 43.8081 60.0186 43.8181 60.6586 45.2481C62.0086 48.2781 64.3786 49.9481 67.6886 49.9781C70.9686 50.0081 73.3286 48.3881 74.7786 45.4481C74.7986 45.3981 74.8186 45.3481 74.8386 45.2981C75.3086 44.2181 75.9286 43.8481 76.6886 44.1881C77.3986 44.5081 77.5686 45.2381 77.1286 46.2481C75.7186 49.4681 73.2886 51.4781 69.8586 52.2681C69.5886 52.3281 69.3286 52.3881 69.0386 52.4581V68.0381C70.9186 68.4981 72.4086 69.4981 73.4086 71.1681C74.1686 72.4381 74.4586 73.8281 74.2586 75.2981C73.8486 78.3581 71.3686 80.7381 68.3786 80.9981C65.0686 81.2781 62.4886 79.3881 61.2986 75.7581H45.4686C44.0986 79.4281 41.9086 81.1181 38.6486 81.0081C35.7686 80.9081 33.4486 78.9381 32.5386 75.7781H20.5886C19.8886 77.3281 19.3786 78.8881 18.5286 80.2281C16.9886 82.6281 14.6786 84.0281 11.8486 84.5081C11.7186 84.5281 11.5986 84.6081 11.4786 84.6581H8.99864L8.98864 84.6481ZM59.0286 41.4181C57.2686 40.3981 55.6386 39.4281 53.9786 38.5081C53.1486 38.0481 52.7386 37.4181 52.7686 36.4481C52.8086 34.9081 52.7686 33.3681 52.7886 31.8181C52.7986 31.1981 52.5586 30.9981 51.9586 30.9981C44.5486 31.0081 37.1386 31.0081 29.7286 30.9981C29.1686 30.9981 28.9586 31.1981 28.9586 31.7781C28.9686 38.7981 28.9786 45.8281 28.9586 52.8481C28.9586 53.4781 29.2086 53.6581 29.7886 53.6581C37.1686 53.6581 44.5486 53.6581 51.9286 53.6581C52.5786 53.6581 52.7886 53.3981 52.7786 52.7681C52.7486 50.6481 52.7986 48.5281 52.7586 46.4081C52.7386 45.4381 53.1086 44.7981 53.9386 44.3281C55.5986 43.4081 57.2286 42.4381 59.0086 41.4081L59.0286 41.4181ZM38.9286 14.2281C41.1986 14.2381 43.0386 12.4181 43.0386 10.1681C43.0386 7.94814 41.2286 6.12814 39.0086 6.11814C36.7286 6.10814 34.9186 7.90814 34.9186 10.1781C34.9186 12.4181 36.6986 14.2181 38.9286 14.2281ZM38.9386 70.4181C36.6986 70.4181 34.9186 72.2181 34.9186 74.4581C34.9186 76.7381 36.7286 78.5381 38.9986 78.5281C41.2186 78.5181 43.0286 76.6981 43.0386 74.4781C43.0386 72.2281 41.2086 70.3981 38.9386 70.4081V70.4181ZM67.7186 14.2281C69.9486 14.2281 71.7786 12.4481 71.7986 10.2381C71.8286 7.96814 70.0186 6.12814 67.7586 6.11814C65.4886 6.11814 63.6786 7.91814 63.6786 10.1981C63.6786 12.4281 65.4786 14.2281 67.7086 14.2381L67.7186 14.2281ZM63.6886 74.4481C63.6886 76.6881 65.4586 78.5081 67.6786 78.5281C69.9486 78.5581 71.7986 76.7481 71.8086 74.4881C71.8086 72.2481 70.0386 70.4281 67.8086 70.4081C65.5286 70.3881 63.6986 72.1781 63.6886 74.4381V74.4481ZM19.5086 45.9081C16.7286 44.7581 14.1386 43.6981 11.4986 42.6081V49.2181C14.1686 48.1181 16.7486 47.0481 19.5086 45.9081Z" fill="#808080"/>
<path d="M15.1287 10.2382C15.0987 12.9682 12.8686 15.1582 10.1486 15.1282C7.41865 15.0882 5.20865 12.8582 5.22865 10.1582C5.24865 7.43819 7.47865 5.22819 10.1986 5.23819C12.9786 5.23819 15.1587 7.45819 15.1387 10.2482L15.1287 10.2382ZM12.6486 10.1382C12.6286 8.76819 11.5186 7.68819 10.1486 7.70819C8.79865 7.72819 7.66865 8.87819 7.69865 10.2082C7.72865 11.5482 8.87865 12.6682 10.2186 12.6382C11.5786 12.6182 12.6586 11.4982 12.6386 10.1282L12.6486 10.1382Z" fill="#808080"/>
<path d="M15.1286 74.5082C15.1186 77.2482 12.9086 79.4282 10.1686 79.4182C7.44863 79.4182 5.21863 77.1882 5.21863 74.4782C5.21863 71.7382 7.50863 69.4782 10.2386 69.5182C12.9786 69.5582 15.1386 71.7582 15.1186 74.5082H15.1286ZM12.6486 74.4882C12.6486 73.1182 11.5586 72.0082 10.1986 71.9982C8.85863 71.9982 7.70863 73.1182 7.69863 74.4582C7.68863 75.7982 8.81863 76.9282 10.1686 76.9382C11.5386 76.9382 12.6386 75.8582 12.6486 74.4882Z" fill="#808080"/>
<path d="M72.6887 42.3482C72.6787 45.0782 70.4587 47.2882 67.7387 47.2782C65.0287 47.2782 62.7987 45.0582 62.7887 42.3382C62.7787 39.5882 65.0287 37.3482 67.7887 37.3682C70.5087 37.3882 72.6987 39.6182 72.6887 42.3482ZM67.7287 39.8482C66.3787 39.8482 65.2587 40.9882 65.2687 42.3382C65.2687 43.6882 66.4087 44.8082 67.7587 44.7982C69.1087 44.7982 70.2187 43.6682 70.2087 42.3082C70.2087 40.9482 69.0887 39.8382 67.7287 39.8482Z" fill="#808080"/>
<path d="M40.9786 35.6881C42.9586 35.6881 44.9386 35.6881 46.9186 35.6881C47.8586 35.6881 48.3586 36.1281 48.3586 36.8981C48.3586 37.6581 47.8486 38.1581 46.9386 38.1581C42.8986 38.1681 38.8486 38.1681 34.8086 38.1581C33.9186 38.1581 33.3586 37.6481 33.3486 36.9181C33.3486 36.1481 33.8986 35.6881 34.8686 35.6881C36.9086 35.6881 38.9386 35.6881 40.9786 35.6881Z" fill="#808080"/>
<path d="M40.9386 41.0981C42.9486 41.0981 44.9586 41.0881 46.9586 41.0981C47.9886 41.0981 48.5786 41.7981 48.3286 42.6681C48.1286 43.3681 47.5686 43.5581 46.9186 43.5681C45.7686 43.5681 44.6086 43.5681 43.4586 43.5681C40.7686 43.5681 38.0686 43.5681 35.3786 43.5681C35.1286 43.5681 34.8786 43.5681 34.6386 43.5481C33.8586 43.4681 33.3586 42.9781 33.3786 42.2981C33.3886 41.6181 33.8986 41.1081 34.6886 41.0981C36.3886 41.0781 38.0986 41.0981 39.7986 41.0881C40.1786 41.0881 40.5686 41.0881 40.9486 41.0881L40.9386 41.0981Z" fill="#808080"/>
<path d="M38.2486 48.9581C37.0886 48.9581 35.9386 48.9581 34.7786 48.9581C33.9186 48.9581 33.3886 48.5081 33.3586 47.7881C33.3186 47.0581 33.8786 46.4981 34.7486 46.4881C37.0586 46.4681 39.3786 46.4681 41.6886 46.4881C42.5386 46.4881 43.0486 46.9981 43.0586 47.7181C43.0586 48.4881 42.5486 48.9481 41.6386 48.9581C40.5086 48.9681 39.3786 48.9581 38.2486 48.9581Z" fill="#808080"/>
</svg>
