<svg width="35" height="34" viewBox="0 0 35 34" fill="none" xmlns="http://www.w3.org/2000/svg">
<path d="M17.563 0C8.16842 0 0.546387 7.61458 0.546387 17C0.546387 26.3854 8.16842 34 17.563 34C26.9576 34 34.5797 26.3854 34.5797 17C34.5797 7.61458 26.9576 0 17.563 0ZM25.5537 18.9408L16.0953 28.39C15.0814 29.4029 13.4294 29.4029 12.4155 28.39C11.4016 27.3771 11.4016 25.7267 12.4155 24.7137L20.1368 17L12.4155 9.28625C11.4016 8.27333 11.4016 6.62292 12.4155 5.61C13.4294 4.59708 15.0814 4.59708 16.0953 5.61L25.5537 15.0592C26.0855 15.5904 26.3408 16.2987 26.3124 17C26.3408 17.7012 26.0855 18.4025 25.5537 18.9408Z" fill="white"/>
</svg>
