<svg width="22" height="18" viewBox="0 0 22 18" fill="none" xmlns="http://www.w3.org/2000/svg">
<path d="M3.15883 10.3617V15.5617H0.282715V2.00168H4.22738C6.0649 2.00168 7.43305 2.34168 8.31186 3.01168C9.19068 3.68168 9.64007 4.70168 9.64007 6.07168C9.64007 6.87168 9.42037 7.58168 8.98096 8.20168C8.54155 8.82168 7.92239 9.31168 7.12347 9.66168C9.16072 12.7117 10.4889 14.6817 11.1081 15.5717H7.92239L4.68676 10.3717H3.15883V10.3617ZM3.15883 8.02168H4.08757C4.99635 8.02168 5.66544 7.87168 6.09486 7.57168C6.52428 7.27168 6.74398 6.79168 6.74398 6.14168C6.74398 5.49168 6.52428 5.04168 6.08487 4.77168C5.64547 4.50168 4.9564 4.36168 4.03764 4.36168H3.16881V8.02168H3.15883Z" fill="white"/>
<path d="M21.3842 11.7178C21.3842 12.826 21.0247 13.7127 20.3057 14.3887C19.5867 15.0648 18.578 15.4637 17.2698 15.5967V17.7357H15.9815V15.63C14.4536 15.5967 13.1054 15.2975 11.947 14.7323V11.9727C12.4962 12.2719 13.1554 12.5379 13.9243 12.7706C14.6933 13.0034 15.3823 13.1364 15.9815 13.1807V9.94453L15.3524 9.66746C14.1141 9.12441 13.2253 8.53702 12.706 7.89422C12.1867 7.25142 11.927 6.46455 11.927 5.52251C11.927 4.51398 12.2865 3.68278 12.9956 3.0289C13.7046 2.37501 14.7033 1.98712 15.9715 1.84304V0.258209H17.2598V1.82088C18.6979 1.88737 19.9961 2.20877 21.1545 2.78508L20.2657 5.23436C19.2871 4.79105 18.2784 4.51398 17.2498 4.41424V7.49524C18.4782 8.01613 19.347 8.47053 19.8663 8.85842C20.3856 9.24632 20.7651 9.66746 21.0047 10.1219C21.2444 10.5873 21.3643 11.1193 21.3643 11.7289L21.3842 11.7178ZM14.7632 5.5336C14.7632 5.84391 14.863 6.08773 15.0528 6.28722C15.2425 6.48671 15.5521 6.6862 15.9815 6.89677V4.4364C15.1726 4.5694 14.7632 4.93513 14.7632 5.52251V5.5336ZM18.5481 11.8729C18.5481 11.5848 18.4382 11.3299 18.2285 11.1304C18.0188 10.9309 17.6992 10.7203 17.2698 10.4987V13.1031C18.1186 12.948 18.5481 12.5268 18.5481 11.8729Z" fill="white"/>
</svg>
